<svg height="453pt" viewBox="0 -1 453.2379 453" width="453pt" xmlns="http://www.w3.org/2000/svg"><path d="m379.0625 45.179688c-10.171875-.070313-63.191406 42.207031-63.5625 94.820312-.367188 52.613281 27.636719 74.433594 62.371094 74.433594 26.390625 0 41.015625-20.9375 41.390625-73.546875.367187-52.613281-31.875-95.648438-40.199219-95.707031zm0 0" fill="#87796f"/><path d="m379.085938 42.179688h-.035157c-12.582031 0-66.175781 44.929687-66.546875 97.796874-.1875 26.414063 6.515625 46.648438 19.917969 60.144532 11.242187 11.328125 26.960937 17.3125 45.453125 17.3125 29.914062 0 44.019531-24.316406 44.386719-76.527344.378906-54.136719-32.429688-98.652344-43.175781-98.726562zm-1.214844 169.253906c-16.855469 0-31.097656-5.375-41.191406-15.539063-12.234376-12.324219-18.351563-31.121093-18.179688-55.875.371094-52.402343 53.535156-91.839843 60.496094-91.839843h.015625c6.292969.71875 37.613281 40.925781 37.246093 92.683593-.445312 63.253907-22.121093 70.570313-38.386718 70.570313zm0 0" fill="#3a312a"/><path d="m375.402344 141.210938c.234375-33.089844-13.410156-60.15625-18.644532-60.191407-6.398437-.042969-39.742187 26.546875-39.976562 59.632813-.234375 33.089844 17.378906 46.660156 39.226562 46.8125 21.84375.152344 19.160157-13.167969 19.394532-46.253906zm0 0" fill="#f16c7a"/><path d="m378.402344 141.230469c.140625-19.976563-4.613282-35.859375-7.457032-43.550781-2.183593-5.894532-7.929687-19.617188-14.167968-19.65625h-.027344c-8.386719 0-42.722656 28-42.96875 62.609374-.117188 16.417969 3.972656 29.148438 12.148438 37.835938 7.308593 7.761719 17.703124 11.910156 30.054687 12h.382813c7.5 0 12.59375-1.589844 16.007812-4.988281 6.09375-6.070313 6.066406-16.671875 6.019531-34.238281-.007812-3.113282-.015625-6.445313.007813-10.011719zm-6.007813 10.027343c.042969 15.457032.070313 25.664063-4.253906 29.96875-2.261719 2.25-6.050781 3.316407-12.113281 3.238282-10.675782-.078125-19.570313-3.574219-25.726563-10.113282-7.085937-7.527343-10.621093-18.855468-10.519531-33.679687.222656-31.667969 31.582031-55.671875 36.757812-56.625 3.722657 2.113281 16.085938 25.648437 15.863282 57.140625-.023438 3.585938-.015625 6.941406-.007813 10.070312zm0 0" fill="#3a312a"/><path d="m379.023438 137.160156c-5.304688-3.539062-10.816407-6.664062-16.542969-9.324218-15.429688-7.253907-32.203125-11.234376-49.78125-11.234376-65.003907 0-119.476563 54.433594-133.816407 127.613282-.039062.230468-.097656.421875-.136718.652344-1.222656 6.335937-4.304688 12.003906-8.652344 16.386718-4.347656 4.425782-9.992188 7.566406-16.332031 8.828125l-70.785157 14.320313c-2.71875.558594-5.1875 1.761718-7.238281 3.449218-3.808593 3.082032-6.183593 7.792969-6.183593 12.980469l6.910156 23.035157 6.722656 22.378906 1.683594 5.632812c2.527344 12.097656 10.050781 14.820313 17.84375 16.40625l36.117187 5.84375 25.40625 4.109375 28.066407 4.542969c7.5625 1.511719 14.226562 5.800781 18.878906 11.945312 25.15625 33.203126 61.304687 54.015626 101.515625 54.015626 22.285156 0 57.285156.210937 86.273437.441406 27.785156.207031 50.453125-22.136719 50.664063-49.917969l.113281-15.105469c.25-31.34375.480469-67.644531.480469-101.476562 0-62.691406-28.757813-117.261719-71.207031-145.523438zm0 0" fill="#fce8cb"/><path d="m380.691406 134.667969c-5.460937-3.648438-11.160156-6.863281-16.929687-9.546875-16.265625-7.644532-33.445313-11.523438-51.058594-11.523438-65.519531 0-121.757813 53.472656-136.761719 130.035156-.003906.03125-.046875.210938-.050781.242188-.035156.160156-.070313.320312-.085937.417969-1.089844 5.640625-3.800782 10.773437-7.847657 14.855469-4.03125 4.101562-9.140625 6.863281-14.789062 7.988281l-70.789063 14.324219c-3.132812.640624-6.085937 2.042968-8.527344 4.054687-4.636718 3.75-7.296874 9.332031-7.296874 15.3125 0 .292969.042968.582031.128906.863281l15.28125 50.921875c2.828125 13.316407 11.355468 16.816407 20.273437 18.628907l36.121094 5.84375c1.648437.257812 3.175781-.847657 3.441406-2.480469.261719-1.636719-.847656-3.175781-2.484375-3.441407l-35.996094-5.824218c-7.179687-1.460938-13.300781-3.53125-15.507812-14.082032-.015625-.082031-.035156-.167968-.0625-.246093l-15.183594-50.605469c.121094-4 1.953125-7.710938 5.082032-10.246094 1.707031-1.40625 3.757812-2.378906 5.929687-2.824218l70.777344-14.320313c6.824219-1.359375 13.007812-4.703125 17.875-9.65625 4.878906-4.917969 8.152343-11.121094 9.46875-17.929687.003906-.027344.042969-.207032.046875-.230469.039062-.164063.070312-.324219.085937-.414063 14.445313-73.710937 68.261719-125.191406 130.875-125.191406 16.726563 0 33.042969 3.6875 48.515625 10.957031 5.503906 2.558594 10.933594 5.621094 16.148438 9.101563 43.09375 28.695312 69.867187 83.496094 69.867187 143.019531 0 28.136719-.148437 60.375-.476562 101.457031l-.117188 15.105469c-.09375 12.636719-5.101562 24.480469-14.097656 33.339844-8.910156 8.78125-20.675781 13.601562-33.171875 13.601562-.121094 0-.246094 0-.367188-.003906-34.769531-.273437-67.027343-.4375-86.300781-.4375-37.554687 0-73.683593-19.253906-99.125-52.824219-5.144531-6.796875-12.488281-11.441406-20.789062-13.101562l-28.0625-4.539063c-1.644531-.253906-3.175781.847657-3.441407 2.480469-.265624 1.636719.847657 3.179688 2.480469 3.445312l27.953125 4.519532c6.753906 1.351562 12.820313 5.191406 17.078125 10.816406 26.582031 35.082031 64.457031 55.203125 103.90625 55.203125 19.257813 0 51.5.164063 86.253907.4375.136718.003906.277343.003906.414062.003906 14.082031 0 27.34375-5.433593 37.382812-15.324219 10.136719-9.988281 15.777344-23.332031 15.886719-37.570312l.117188-15.109375c.324219-41.097656.476562-73.351563.476562-101.5-.007812-61.5-27.804687-118.214844-72.546875-148.003906zm0 0" fill="#3a312a"/><path d="m379.019531 137.164062c-5.296875-3.542968-10.816406-6.660156-16.539062-9.335937-15.429688-7.253906-32.207031-11.222656-49.785157-11.222656-64.996093 0-119.464843 54.4375-133.820312 127.605469-.035156.222656-.085938.425781-.121094.648437 25.957032 76.902344 113.570313 134.722656 219.957032 140.53125 5.839843.324219 11.75.496094 17.714843.496094 11.308594 0 22.429688-.582031 33.332031-1.722657.234376-31.355468.472657-67.648437.472657-101.496093 0-62.675781-28.765625-117.25-71.210938-145.503907zm0 0" fill="#87796f"/><g fill="#3a312a"><path d="m380.6875 134.667969c-5.414062-3.621094-11.113281-6.835938-16.929688-9.550781-16.242187-7.640626-33.421874-11.511719-51.0625-11.511719-65.5 0-121.742187 53.46875-136.765624 130.027343-.011719.039063-.050782.273438-.058594.316407-.03125.148437-.058594.296875-.082032.453125-.074218.472656-.03125.960937.121094 1.414062 26.824219 79.472656 116.292969 136.765625 222.632813 142.570313 5.960937.332031 11.976562.5 17.878906.5 11.316406 0 22.636719-.585938 33.644531-1.738281 1.515625-.160157 2.675782-1.433594 2.6875-2.960938.234375-31.015625.476563-67.332031.476563-101.519531 0-61.5-27.796875-118.210938-72.542969-148zm66.089844 246.78125c-15.613282 1.496093-31.738282 1.839843-47.90625.945312-103.582032-5.65625-190.671875-60.976562-217.023438-137.757812 14.503906-73.625 68.292969-125.03125 130.847656-125.03125 16.75 0 33.070313 3.679687 48.515626 10.941406 5.546874 2.59375 10.980468 5.65625 16.148437 9.113281 43.097656 28.695313 69.871094 83.492188 69.871094 143.007813 0 33.183593-.226563 68.378906-.453125 98.78125zm0 0"/><path d="m75.738281 287.847656c-3.808593 3.082032-6.183593 7.792969-6.183593 12.980469l6.910156 23.035156c10.492187-3.675781 18.113281-14.035156 18.152344-20.964843.035156-7.125-7.949219-13.195313-18.878907-15.050782zm0 0"/><path d="m132.191406 304.519531c-1.65625 0-3 1.34375-3 3 0 18.050781-14.695312 32.742188-32.757812 32.742188-1.089844 0-2.207032-.066407-3.433594-.207031-3.6875-.378907-7.199219-1.355469-10.4375-2.902344-1.492188-.710938-3.285156-.078125-3.996094 1.417968-.714844 1.492188-.082031 3.285157 1.414063 3.996094 3.859375 1.84375 8.03125 3.003906 12.375 3.457032 1.425781.160156 2.757812.238281 4.078125.238281 21.371094 0 38.757812-17.378907 38.757812-38.742188 0-1.65625-1.339844-3-3-3zm0 0"/></g><path d="m294.757812 251.054688c-18.578124 0-33.640624 9.410156-33.640624 21.023437 0 11.609375 15.0625 21.023437 33.640624 21.023437 18.574219 0 33.636719-9.410156 33.636719-21.023437 0-11.609375-15.0625-21.023437-33.636719-21.023437zm0 0" fill="#f5978a"/><path d="m244.300781 215.625c-8.128906 0-14.71875 6.589844-14.71875 14.714844 0 8.128906 6.589844 14.71875 14.71875 14.71875 8.128907 0 14.714844-6.589844 14.714844-14.71875 0-8.125-6.585937-14.714844-14.714844-14.714844zm0 0" fill="#3a312a"/><path d="m64.820312 201.785156c-1.945312 23.125-26.046874 26.777344-26.046874 26.777344 20.691406.972656 25.847656 28.117188 25.847656 28.117188.441406-19.355469 26.644531-28.402344 26.644531-28.402344-19.628906-1.175782-26.445313-26.492188-26.445313-26.492188zm0 0" fill="#d7e057"/><path d="m91.445312 225.28125c-17.210937-1.027344-23.664062-24.046875-23.726562-24.28125-.382812-1.40625-1.730469-2.335938-3.167969-2.203125-1.449219.132813-2.59375 1.28125-2.71875 2.734375-1.71875 20.429688-22.625 23.925781-23.507812 24.066406-1.523438.226563-2.625 1.578125-2.542969 3.121094.078125 1.539062 1.3125 2.765625 2.851562 2.839844 18.058594.851562 23 25.4375 23.046876 25.683594.273437 1.421874 1.519531 2.4375 2.945312 2.4375.082031 0 .167969-.003907.25-.011719 1.527344-.128907 2.714844-1.386719 2.75-2.917969.390625-17.015625 24.382812-25.554688 24.625-25.636719 1.351562-.472656 2.1875-1.832031 1.988281-3.246093-.199219-1.417969-1.367187-2.5-2.792969-2.585938zm-27.132812 20.691406c-2.710938-6.257812-7.417969-13.8125-15.171875-17.75 5.859375-2.8125 12.816406-7.828125 16.402344-16.546875 3.101562 6.140625 8.402343 13.761719 16.667969 17.445313-6.015626 3.277344-13.84375 8.808594-17.898438 16.851562zm0 0" fill="#3a312a"/><path d="m21.425781 235.746094c-1.378906 16.359375-18.425781 18.941406-18.425781 18.941406 14.636719.6875 18.285156 19.886719 18.285156 19.886719.3125-13.6875 18.84375-20.089844 18.84375-20.089844-13.882812-.832031-18.703125-18.738281-18.703125-18.738281zm0 0" fill="#d7e057"/><path d="m40.308594 251.488281c-11.535156-.691406-15.945313-16.371093-15.988282-16.53125-.378906-1.402343-1.707031-2.328125-3.164062-2.203125-1.453125.128906-2.597656 1.285156-2.71875 2.734375-1.160156 13.742188-15.292969 16.136719-15.886719 16.230469-1.523437.230469-2.6249998 1.578125-2.54687475 3.121094.07812495 1.539062 1.31249975 2.769531 2.85546875 2.84375 12.070313.566406 15.445313 17.285156 15.476563 17.449218.269531 1.425782 1.519531 2.441407 2.945312 2.441407.082031 0 .164062-.003907.25-.011719 1.527344-.125 2.714844-1.386719 2.75-2.921875.261719-11.417969 16.664062-17.265625 16.828125-17.324219 1.351563-.464844 2.1875-1.824218 1.992187-3.242187-.195312-1.417969-1.363281-2.5-2.792968-2.585938zm-19.171875 13.589844c-1.847657-3.769531-4.679688-7.894531-8.894531-10.558594 3.710937-2.082031 7.394531-5.257812 9.742187-9.832031 2.117187 3.746094 5.308594 7.90625 9.882813 10.445312-3.699219 2.203126-7.976563 5.480469-10.730469 9.945313zm0 0" fill="#3a312a"/><path d="m21.425781 182.429688c-1.378906 16.359374-18.425781 18.941406-18.425781 18.941406 14.636719.6875 18.285156 19.890625 18.285156 19.890625.3125-13.691407 18.84375-20.09375 18.84375-20.09375-13.882812-.832031-18.703125-18.738281-18.703125-18.738281zm0 0" fill="#d7e057"/><path d="m40.308594 198.171875c-11.53125-.6875-15.945313-16.367187-15.988282-16.527344-.378906-1.402343-1.707031-2.332031-3.164062-2.203125-1.453125.128906-2.597656 1.285156-2.71875 2.738282-1.160156 13.738281-15.292969 16.132812-15.886719 16.226562-1.523437.230469-2.6249998 1.578125-2.54687475 3.121094.07812495 1.539062 1.31249975 2.769531 2.85546875 2.84375 12.070313.566406 15.445313 17.285156 15.480469 17.449218.269531 1.425782 1.515625 2.441407 2.941406 2.441407.085938 0 .167969-.007813.25-.011719 1.53125-.125 2.714844-1.386719 2.753906-2.921875.257813-11.417969 16.664063-17.269531 16.824219-17.324219 1.355469-.46875 2.1875-1.824218 1.992187-3.242187-.195312-1.421875-1.363281-2.5-2.792968-2.589844zm-19.171875 13.59375c-1.847657-3.773437-4.679688-7.894531-8.894531-10.5625 3.710937-2.082031 7.394531-5.257813 9.742187-9.832031 2.113281 3.75 5.308594 7.910156 9.882813 10.445312-3.699219 2.203125-7.976563 5.484375-10.730469 9.949219zm0 0" fill="#3a312a"/><path d="m344.257812 41.3125c-1.589843-3.132812-4.257812-5.917969-8.761718-6.671875l-141.175782-30.628906c-11.679687-1.957031-23.667968-.679688-34.671874 3.671875l-44.539063 19.394531-25.023437 10.925781-35.738282 15.570313v66.855469l6.730469-3.191407c5.917969-2.804687 12.53125-3.867187 19.011719-3.09375l16.976562 2.050781c22.222656 2.667969 44.75-.988281 65-10.558593l92.882813-43.9375 73.121093 2.800781c3.402344.117188 6.671876-.65625 9.535157-2.164062 7.441406-3.945313 10.457031-13.5 6.652343-21.023438zm0 0" fill="#fce8cb"/><path d="m346.933594 39.957031c-2.332032-4.605469-6.117188-7.46875-10.800782-8.25l-141.316406-30.65625c-12.210937-2.042969-24.75-.714843-36.367187 3.882813l-44.539063 19.394531c-1.519531.664063-2.214844 2.429687-1.550781 3.949219.660156 1.519531 2.425781 2.210937 3.945313 1.550781l44.445312-19.355469c10.503906-4.15625 21.945312-5.367187 32.933594-3.53125l141.3125 30.660156c2.953125.492188 5.105468 2.148438 6.582031 5.066407 3.066406 6.054687.601563 13.847656-5.375 17.011719-2.445313 1.289062-5.234375 1.925781-8.019531 1.820312l-73.121094-2.800781c-.496094-.011719-.960938.078125-1.398438.285156l-92.882812 43.9375c-19.753906 9.339844-41.664062 12.902344-63.355469 10.292969l-16.980469-2.050782c-7.078124-.847656-14.222656.316407-20.652343 3.363282l-2.445313 1.160156v-60.148438l33.9375-14.785156c1.515625-.660156 2.210938-2.425781 1.550782-3.945312-.660157-1.519532-2.429688-2.214844-3.949219-1.554688l-35.738281 15.570313c-1.09375.476562-1.800782 1.554687-1.800782 2.75v66.855469c0 1.027343.527344 1.984374 1.394532 2.535156.488281.308594 1.046874.464844 1.605468.464844.4375 0 .875-.097657 1.285156-.289063l6.730469-3.191406c5.40625-2.5625 11.40625-3.546875 17.363281-2.828125l16.984376 2.050781c22.820312 2.742187 45.859374-1.003906 66.636718-10.824219l92.21875-43.625 72.398438 2.773438c3.855468.136718 7.671875-.734375 11.042968-2.511719 8.953126-4.746094 12.511719-15.96875 7.925782-25.027344zm0 0" fill="#3a312a"/><path d="m241.171875 41.707031c-7.617187-2.074219-15.511719-.863281-22.476563.203125-14.683593 2.246094-27.371093 5.375-40.796874 8.6875-12.757813 3.140625-25.949219 6.394532-42.625 9.402344-1.628907.296875-2.714844 1.855469-2.417969 3.484375.261719 1.453125 1.523437 2.46875 2.945312 2.46875.175781 0 .355469-.015625.539063-.046875 16.863281-3.042969 30.144531-6.320312 42.992187-9.484375 13.292969-3.277344 25.851563-6.375 40.269531-8.582031 6.375-.972656 13.605469-2.078125 19.996094-.34375 5.453125 1.484375 11.132813 6.050781 11.441406 11.910156.085938 1.65625 1.542969 2.945312 3.152344 2.835938 1.65625-.085938 2.925782-1.496094 2.839844-3.152344-.480469-9.109375-8.558594-15.394532-15.859375-17.382813zm0 0" fill="#3a312a"/><path d="m38.898438 26.640625h-35.46875v124.539063h35.46875c8.535156 0 15.457031-6.917969 15.457031-15.453126v-93.628906c-.003907-8.535156-6.921875-15.457031-15.457031-15.457031zm0 0" fill="#f16c7a"/><path d="m38.898438 23.640625h-35.46875c-1.660157 0-3 1.34375-3 3v124.539063c0 1.65625 1.339843 3 3 3h35.46875c10.175781 0 18.457031-8.277344 18.457031-18.453126v-93.628906c-.003907-10.179687-8.28125-18.457031-18.457031-18.457031zm12.453124 112.085937c0 6.863282-5.585937 12.453126-12.453124 12.453126h-32.46875v-118.539063h32.46875c6.867187 0 12.457031 5.589844 12.457031 12.457031v93.628906zm0 0" fill="#3a312a"/><path d="m28.890625 40.8125c-6.4375 0-11.660156 5.21875-11.660156 11.65625s5.21875 11.65625 11.660156 11.65625c6.4375 0 11.65625-5.21875 11.65625-11.65625 0-6.433594-5.21875-11.65625-11.65625-11.65625zm0 0" fill="#87796f"/><path d="m28.890625 37.8125c-8.082031 0-14.660156 6.578125-14.660156 14.660156 0 8.082032 6.578125 14.65625 14.660156 14.65625s14.65625-6.578125 14.65625-14.65625c0-8.082031-6.574219-14.660156-14.65625-14.660156zm0 23.316406c-4.773437 0-8.660156-3.882812-8.660156-8.65625 0-4.773437 3.886719-8.660156 8.660156-8.660156s8.65625 3.886719 8.65625 8.660156c0 4.769532-3.882813 8.65625-8.65625 8.65625zm0 0" fill="#3a312a"/><path d="m419.710938 388.859375-.078126 10.402344c-.160156 21.519531-13.800781 39.777343-32.859374 46.816406 4.019531.042969 8.097656.0625 12.21875.101563 12.660156.121093 24.558593-4.738282 33.539062-13.601563 9-8.859375 14.019531-20.699219 14.101562-33.339844l.097657-11.777343c-8.898438.820312-17.9375 1.300781-27.019531 1.398437zm0 0" fill="#decaad"/><path d="m377.351562 139.660156c-5.160156-3.460937-10.601562-6.519531-16.140624-9.121094-15.4375-7.257812-31.757813-10.9375-48.519532-10.9375-1.21875 0-2.417968.019532-3.621094.058594 8.082032 1.898438 15.921876 4.660156 23.402344 8.179688 5.738282 2.660156 11.238282 5.78125 16.558594 9.320312 42.441406 28.257813 71.199219 82.839844 71.199219 145.519532 0 33.378906-.21875 69.140624-.457031 100.179687 9.117187-.078125 18.136718-.558594 27-1.417969.238281-30.402344.457031-65.582031.457031-98.761718 0-59.519532-26.777344-114.320313-69.878907-143.019532zm0 0" fill="#695b51"/></svg>