<svg height="488pt" viewBox="-68 0 488 488.00345" width="488pt" xmlns="http://www.w3.org/2000/svg"><path d="m345.441406 277.183594-115.355468 198.15625-36.507813-20.902344 115.355469-198.15625c5.84375-10.042969 18.757812-13.5 28.835937-7.726562 10.082031 5.769531 13.515625 18.589843 7.671875 28.628906zm0 0" fill="#f9cfcf"/><path d="m230.082031 479.339844c-.671875 0-1.355469-.167969-1.980469-.527344l-36.511718-20.90625c-.925782-.527344-1.601563-1.40625-1.875-2.433594-.277344-1.027344-.128906-2.128906.40625-3.050781l115.355468-198.15625c6.933594-11.917969 22.3125-16.039063 34.28125-9.1875 5.808594 3.328125 9.960938 8.710937 11.6875 15.152344 1.722657 6.445312.820313 13.179687-2.546874 18.964843l-115.351563 198.15625c-.746094 1.277344-2.085937 1.988282-3.464844 1.988282zm-31.019531-26.371094 29.566406 16.929688 113.355469-194.726563c2.289063-3.925781 2.902344-8.5 1.730469-12.867187-1.171875-4.371094-3.988282-8.023438-7.933594-10.28125-8.160156-4.671876-18.65625-1.863282-23.390625 6.269531zm0 0" fill="#3762cc"/><path d="m293.390625 370.1875c-1.183594-7.445312-3.21875-14.609375-5.988281-21.398438l-39.574219-141.453124h-154.117187l-39.574219 141.453124c-2.765625 6.789063-4.804688 13.953126-5.988281 21.398438l-.585938 4.378906c-.410156 3.636719-.640625 7.324219-.640625 11.066406 0 54.328126 44.359375 98.371094 99.078125 98.371094h49.539062c54.714844 0 99.074219-44.042968 99.074219-98.371094 0-3.742187-.230469-7.429687-.640625-11.066406zm0 0" fill="#a4c9ff"/><path d="m195.539062 488.003906h-49.539062c-56.835938 0-103.078125-45.921875-103.078125-102.371094 0-3.722656.226563-7.597656.667969-11.515624l.59375-4.457032c1.207031-7.617187 3.277344-15.039062 6.160156-22.167968l39.515625-141.230469c.480469-1.726563 2.054687-2.921875 3.851563-2.921875h154.121093c1.792969 0 3.371094 1.195312 3.851563 2.921875l39.515625 141.230469c2.878906 7.128906 4.949219 14.550781 6.144531 22.070312.003906.03125.011719.066406.015625.097656l.582031 4.378906c.453125 3.996094.675782 7.871094.675782 11.597657 0 56.441406-46.242188 102.367187-103.078126 102.367187zm-98.792968-276.664062-38.757813 138.527344c-.042969.144531-.089843.289062-.148437.429687-2.699219 6.625-4.628906 13.53125-5.738282 20.519531l-.570312 4.277344c-.398438 3.542969-.605469 7.113281-.605469 10.542969 0 52.035156 42.648438 94.367187 95.074219 94.367187h49.542969c52.425781 0 95.074219-42.332031 95.074219-94.367187 0-3.425781-.207032-7-.617188-10.621094l-.566406-4.25c-1.113282-6.96875-3.039063-13.859375-5.730469-20.46875-.058594-.140625-.105469-.285156-.148437-.429687l-38.757813-138.527344zm0 0" fill="#3762cc"/><path d="m303.234375 111.273438-102.378906-58.6875 87.570312-47.542969c5.550781-3.015625 12.347657.878906 12.492188 7.160156zm0 0" fill="#a4c9ff"/><path d="m226.707031 52.886719 55.625-30.203125c2.777344-1.507813 6.171875.441406 6.246094 3.578125l1.46875 62.933593zm0 0" fill="#f9cfcf"/><path d="m303.234375 115.273438c-.6875 0-1.375-.175782-1.992187-.53125l-102.375-58.683594c-1.257813-.722656-2.027344-2.070313-2.011719-3.515625.019531-1.453125.816406-2.78125 2.09375-3.472657l87.570312-47.542968c3.855469-2.09375 8.421875-2.027344 12.21875.167968 3.769531 2.183594 6.078125 6.074219 6.179688 10.414063l2.3125 99.070313c.039062 1.445312-.707031 2.792968-1.953125 3.53125-.628906.375-1.335938.5625-2.042969.5625zm-94.171875-62.59375 90.007812 51.597656-2.148437-91.980469c-.050781-2.203125-1.550781-3.304687-2.195313-3.675781-.652343-.382813-2.386718-1.152344-4.390624-.0625zm0 0" fill="#3762cc"/><path d="m38.308594 111.273438 102.378906-58.6875-87.570312-47.542969c-5.554688-3.015625-12.347657.878906-12.496094 7.160156zm0 0" fill="#a4c9ff"/><path d="m59.207031 22.683594 55.625 30.203125-63.339843 36.308593 1.46875-62.933593c.074218-3.136719 3.472656-5.085938 6.246093-3.578125zm0 0" fill="#f9cfcf"/><path d="m38.308594 115.273438c-.707032 0-1.417969-.1875-2.042969-.5625-1.242187-.738282-1.988281-2.085938-1.957031-3.53125l2.316406-99.070313c.097656-4.339844 2.410156-8.230469 6.175781-10.414063 3.800781-2.199218 8.367188-2.265624 12.222657-.167968l87.570312 47.542968c1.277344.691407 2.074219 2.019532 2.09375 3.472657.015625 1.449219-.753906 2.792969-2.015625 3.515625l-102.375 58.683594c-.613281.355468-1.304687.53125-1.988281.53125zm10.773437-107.273438c-1.039062 0-1.863281.382812-2.269531.617188-.640625.371093-2.140625 1.472656-2.191406 3.679687l-2.148438 91.976563 90.003906-51.59375-81.269531-44.121094c-.761719-.414063-1.484375-.558594-2.125-.558594zm0 0" fill="#3762cc"/><path d="m198.996094 250.304688h-56.453125c-60.191407 0-108.988281-48.796876-108.988281-108.988282s48.796874-108.988281 108.988281-108.988281h56.453125c60.195312 0 108.988281 48.796875 108.988281 108.988281s-48.792969 108.988282-108.988281 108.988282zm0 0" fill="#a4c9ff"/><path d="m246.597656 200.296875c-9.746094-35.550781-40.664062-60.03125-75.828125-60.03125-35.160156 0-66.082031 24.480469-75.828125 60.03125l-9.3125 33.972656c16.566406 10.164063 36.054688 16.035157 56.914063 16.035157h56.453125c20.863281 0 40.347656-5.871094 56.914062-16.035157zm0 0" fill="#e0ebfc"/><path d="m119.085938 150.746094h-.074219c-5.808594 0-10.519531-4.707032-10.519531-10.515625v-12.5c0-5.808594 4.710937-10.519531 10.519531-10.519531h.074219c5.808593 0 10.519531 4.707031 10.519531 10.519531v12.5c0 5.808593-4.707031 10.515625-10.519531 10.515625zm0 0" fill="#3762cc"/><path d="m224.640625 150.746094h-.078125c-5.808594 0-10.515625-4.707032-10.515625-10.515625v-12.5c0-5.808594 4.707031-10.519531 10.515625-10.519531h.078125c5.808594 0 10.515625 4.707031 10.515625 10.519531v12.5c0 5.808593-4.707031 10.515625-10.515625 10.515625zm0 0" fill="#3762cc"/><path d="m185.546875 189.332031c-6.292969 0-12.125-2.464843-15.832031-6.5625-3.707032 4.097657-9.542969 6.5625-15.832032 6.5625-10.9375 0-19.832031-7.4375-19.832031-16.578125 0-2.207031 1.789063-4 4-4 2.207031 0 4 1.792969 4 4 0 4.648438 5.417969 8.578125 11.832031 8.578125 4.542969 0 8.757813-1.960937 10.726563-5 1.125-1.738281 3.035156-2.769531 5.105469-2.769531h.003906c2.070312 0 3.976562 1.035156 5.101562 2.769531 1.96875 3.039063 6.179688 5 10.726563 5 6.414063 0 11.832031-3.925781 11.832031-8.574219 0-2.207031 1.792969-4 4-4 2.207032 0 4 1.792969 4 4 0 9.136719-8.894531 16.574219-19.832031 16.574219zm0 0" fill="#3762cc"/><path d="m176.742188 152.125 5.972656-5.925781c1.289062-1.285157 2.058594-2.882813 2.339844-4.546875-4.652344-.902344-9.425782-1.382813-14.28125-1.382813-4.859376 0-9.632813.484375-14.285157 1.382813.28125 1.664062 1.046875 3.261718 2.339844 4.546875l5.972656 5.925781c3.296875 3.273438 8.644531 3.273438 11.941407 0zm0 0" fill="#f9a7a7"/><g fill="#3762cc"><path d="m198.996094 254.304688h-56.453125c-62.300781 0-112.988281-50.683594-112.988281-112.988282 0-62.304687 50.6875-112.992187 112.988281-112.992187h56.453125c62.304687 0 112.992187 50.6875 112.992187 112.992187 0 62.304688-50.6875 112.988282-112.992187 112.988282zm-56.453125-217.976563c-57.890625 0-104.988281 47.097656-104.988281 104.988281 0 57.894532 47.097656 104.992188 104.988281 104.992188h56.453125c57.894531 0 104.992187-47.097656 104.992187-104.992188 0-57.890625-47.097656-104.988281-104.992187-104.988281zm0 0"/><path d="m337.539062 171.515625h-63.328124c-2.210938 0-4-1.792969-4-4s1.789062-4 4-4h63.328124c2.207032 0 4 1.792969 4 4s-1.789062 4-4 4zm0 0"/><path d="m274.234375 153.703125c-1.382813 0-2.734375-.722656-3.472656-2.015625-1.097657-1.914062-.4375-4.359375 1.480469-5.457031l54.84375-31.441407c1.925781-1.101562 4.363281-.433593 5.460937 1.480469 1.097656 1.917969.4375 4.363281-1.480469 5.460938l-54.84375 31.441406c-.628906.359375-1.3125.53125-1.988281.53125zm0 0"/><path d="m329.074219 220.769531c-.675781 0-1.359375-.167969-1.988281-.527343l-54.84375-31.441407c-1.917969-1.097656-2.578126-3.542969-1.480469-5.460937 1.101562-1.914063 3.539062-2.578125 5.460937-1.480469l54.84375 31.441406c1.917969 1.097657 2.578125 3.539063 1.480469 5.457031-.738281 1.292969-2.085937 2.011719-3.472656 2.011719zm0 0"/><path d="m67.332031 171.515625h-63.332031c-2.207031 0-4-1.792969-4-4s1.792969-4 4-4h63.332031c2.207031 0 4 1.792969 4 4s-1.792969 4-4 4zm0 0"/><path d="m12.46875 220.769531c-1.386719 0-2.734375-.71875-3.476562-2.011719-1.097657-1.914062-.433594-4.359374 1.484374-5.457031l54.847657-31.441406c1.917969-1.097656 4.359375-.433594 5.457031 1.480469 1.097656 1.917968.4375 4.363281-1.480469 5.460937l-54.847656 31.441407c-.628906.359374-1.3125.527343-1.984375.527343zm0 0"/><path d="m67.308594 153.703125c-.675782 0-1.359375-.171875-1.984375-.53125l-54.847657-31.441406c-1.917968-1.097657-2.582031-3.542969-1.484374-5.460938 1.101562-1.914062 3.542968-2.582031 5.460937-1.480469l54.847656 31.441407c1.917969 1.097656 2.578125 3.539062 1.480469 5.457031-.738281 1.289062-2.085938 2.015625-3.472656 2.015625zm0 0"/><path d="m170.769531 158.574219c-3.183593 0-6.367187-1.203125-8.789062-3.609375l-5.972657-5.929688c-1.835937-1.820312-3.03125-4.144531-3.464843-6.722656-.359375-2.140625 1.054687-4.175781 3.1875-4.589844 9.992187-1.929687 20.09375-1.929687 30.082031 0 2.128906.414063 3.542969 2.449219 3.183594 4.589844-.433594 2.574219-1.628906 4.898438-3.464844 6.722656l-5.96875 5.925782c-2.425781 2.410156-5.609375 3.613281-8.792969 3.613281zm-7.765625-13.871094 4.617188 4.585937c1.738281 1.726563 4.566406 1.722657 6.300781 0l4.617187-4.585937c-5.1875-.578125-10.339843-.578125-15.535156 0zm0 0"/><path d="m212.761719 488.003906h-25.101563c-1.292968 0-2.59375-.121094-3.855468-.355468-5.679688-1.0625-9.804688-6.15625-9.804688-12.117188v-99.527344c0-1.140625-.460938-2.191406-1.308594-2.960937-.839844-.765625-1.945312-1.132813-3.09375-1.019531-2.019531.191406-3.597656 2.089843-3.597656 4.324218v99.273438c0 6.792968-5.382812 12.347656-12.007812 12.382812h-25.210938c-10.042969 0-18.679688-7.125-20.53125-16.9375l-3.296875-17.460937c-25.957031-102.164063-20.015625-132.667969-19.75-133.917969.457031-2.15625 2.578125-3.539062 4.746094-3.078125 2.152343.457031 3.527343 2.566406 3.085937 4.71875-.082031.410156-5.574218 30.980469 19.703125 130.425781.019531.082032.042969.164063.054688.246094l3.320312 17.582031c1.136719 6.042969 6.464844 10.421875 12.667969 10.421875h25.101562c2.265626-.011718 4.121094-2.019531 4.121094-4.382812v-99.273438c0-6.3125 4.761719-11.710937 10.835938-12.289062 3.375-.320313 6.738281.792968 9.234375 3.066406 2.496093 2.269531 3.929687 5.503906 3.929687 8.878906v99.527344c0 2.078125 1.40625 3.902344 3.273438 4.253906.78125.144532 1.582031.21875 2.382812.21875h25.105469c6.199219 0 11.527344-4.382812 12.667969-10.421875l3.320312-17.582031c.015625-.082031.035156-.164062.050782-.246094 25.328124-99.632812 19.765624-130.128906 19.707031-130.425781-.429688-2.15625.957031-4.269531 3.113281-4.710937 2.144531-.449219 4.261719.917968 4.714844 3.070312.269531 1.25 6.210937 31.757812-19.75 133.917969l-3.296875 17.460937c-1.851563 9.8125-10.488281 16.9375-20.53125 16.9375zm0 0"/></g></svg>