<svg id="_004-google-plus-logo-button" data-name="004-google-plus-logo-button" xmlns="http://www.w3.org/2000/svg" width="49.652" height="49.652" viewBox="0 0 49.652 49.652">
  <g id="Group_18" data-name="Group 18">
    <g id="Group_17" data-name="Group 17">
      <path id="Path_36" data-name="Path 36" d="M21.5,28.94c-.161-.107-.326-.223-.5-.34a5.66,5.66,0,0,0-1.584-.241h-.066c-2.514,0-4.718,1.521-4.718,3.257,0,1.89,1.889,3.367,4.3,3.367,3.179,0,4.79-1.1,4.79-3.258a2.706,2.706,0,0,0-.075-.629C23.432,30.258,22.663,29.735,21.5,28.94Z" fill="#c0c4c5"/>
      <path id="Path_37" data-name="Path 37" d="M19.719,22.352h0a1.925,1.925,0,0,0,1.5-.687,3.943,3.943,0,0,0,.727-3.077c-.285-2.186-1.848-4.006-3.479-4.053l-.065,0a1.927,1.927,0,0,0-1.483.686,3.822,3.822,0,0,0-.7,3.012C16.5,20.415,18.1,22.3,19.7,22.352Z" fill="#c0c4c5"/>
      <path id="Path_38" data-name="Path 38" d="M24.826,0A24.826,24.826,0,1,0,49.652,24.826,24.854,24.854,0,0,0,24.826,0ZM21.964,36.915a10.874,10.874,0,0,1-3.018.408,13.832,13.832,0,0,1-3.389-.4,6.574,6.574,0,0,1-4.287-2.771,3.526,3.526,0,0,1-.461-1.737,4.411,4.411,0,0,1,.443-1.881c1.127-2.4,4.1-4.018,7.389-4.018h.094a2.932,2.932,0,0,1-.4-1.472,3.131,3.131,0,0,1,.1-.78,5.928,5.928,0,0,1-6.035-5.939c0-2.353,1.881-4.646,4.571-5.572a7.458,7.458,0,0,1,2.433-.42h7.382a.58.58,0,0,1,.341,1.049l-1.651,1.195a.59.59,0,0,1-.341.108H24.55a5.745,5.745,0,0,1,1.21,3.685,5.5,5.5,0,0,1-2.307,4.311c-1.15.9-1.195,1.143-1.195,1.654a4.9,4.9,0,0,0,1.7,1.823,5.709,5.709,0,0,1,2.825,5.269C26.781,33.913,24.89,36.065,21.964,36.915ZM38.635,24.253a.581.581,0,0,1-.58.58H33.86v4.2a.581.581,0,0,1-.578.58H32.087a.581.581,0,0,1-.582-.58v-4.2H27.313a.579.579,0,0,1-.58-.58V23.06a.582.582,0,0,1,.58-.582h4.192V18.285a.58.58,0,0,1,.582-.58h1.195a.58.58,0,0,1,.578.58v4.193h4.194a.581.581,0,0,1,.58.58v1.195Z" fill="#c0c4c5"/>
    </g>
  </g>
</svg>
