<svg xmlns="http://www.w3.org/2000/svg" width="11.75" height="13.167" viewBox="0 0 11.75 13.167">
  <path id="Path_5" data-name="Path 5" d="M6.917,7.925H5.611V9.242H6.917Zm2.611,0H8.222V9.242H9.528Zm2.611,0H10.833V9.242h1.306Zm1.306-4.608h-.653V2H11.486V3.317H6.264V2H4.958V3.317H4.306a1.305,1.305,0,0,0-1.3,1.317L3,13.85a1.311,1.311,0,0,0,1.306,1.317h9.139A1.315,1.315,0,0,0,14.75,13.85V4.633A1.315,1.315,0,0,0,13.444,3.317Zm0,10.533H4.306V6.608h9.139Z" transform="translate(-3 -2)" fill="#c0c4c5"/>
</svg>
