<svg id="undraw_good_doggy_4wfq" xmlns="http://www.w3.org/2000/svg" xmlns:xlink="http://www.w3.org/1999/xlink" width="812" height="578.603" viewBox="0 0 812 578.603">
  <defs>
    <linearGradient id="linear-gradient" x1="-0.013" y1="0.424" x2="0.96" y2="0.424" gradientUnits="objectBoundingBox">
      <stop offset="0" stop-color="gray" stop-opacity="0.251"/>
      <stop offset="0.54" stop-color="gray" stop-opacity="0.122"/>
      <stop offset="1" stop-color="gray" stop-opacity="0.102"/>
    </linearGradient>
  </defs>
  <path id="Path_130" data-name="Path 130" d="M871.486,683.55c-6.054,3.12-12.4,5.816-18.646,8.46-23.119,9.752-46.594,19.607-71.422,22.957-46.654,6.249-94.787-10.756-140.616-.145-38.389,8.86-70.138,36.009-107.643,48.1-17.439,5.62-35.583,7.822-53.89,7.822H476.9c-2.253,0-4.5-.085-6.751-.17-18.561-.7-37.2-3.4-55.395-6.947-57.452-11.053-115.925-31.315-159.849-68.616C382.806,671.638,646.26,635.774,871.486,683.55Z" transform="translate(-142.327 -192.141)" fill="#252223" opacity="0.1"/>
  <path id="Path_131" data-name="Path 131" d="M773.738,211.715V157.3h-32.31v54.417H703.167V127.539H675.108V64.62H652.151V0H604.536V64.62H581.579v62.919H554.371V51.866h-15.3V13.6h-9.353V51.866H475.3V293.34H433.634V267.832H408.126V293.34H366.463V211.715H291.64V157.3H259.33v54.417h-1.7V316.3h-34.01V255.079H182.806V316.3H148.8V127.539H122.438V64.62H25.508v62.919H0V459.992H812V211.715Z" fill="#6c63ff" opacity="0.3"/>
  <rect id="Rectangle_45" data-name="Rectangle 45" width="35.711" height="20.406" transform="translate(16.155 147.095)" fill="#fff" opacity="0.4"/>
  <rect id="Rectangle_46" data-name="Rectangle 46" width="35.711" height="20.406" transform="translate(131.791 167.502) rotate(180)" fill="#fff" opacity="0.4"/>
  <rect id="Rectangle_47" data-name="Rectangle 47" width="35.711" height="20.406" transform="translate(16.155 187.058)" fill="#fff" opacity="0.4"/>
  <rect id="Rectangle_48" data-name="Rectangle 48" width="35.711" height="20.406" transform="translate(131.791 207.464) rotate(180)" fill="#fff" opacity="0.4"/>
  <rect id="Rectangle_49" data-name="Rectangle 49" width="35.711" height="20.406" transform="translate(16.155 227.02)" fill="#fff" opacity="0.4"/>
  <rect id="Rectangle_50" data-name="Rectangle 50" width="35.711" height="20.406" transform="translate(131.791 247.426) rotate(180)" fill="#fff" opacity="0.4"/>
  <rect id="Rectangle_51" data-name="Rectangle 51" width="35.711" height="20.406" transform="translate(16.155 266.982)" fill="#fff" opacity="0.4"/>
  <rect id="Rectangle_52" data-name="Rectangle 52" width="35.711" height="20.406" transform="translate(131.791 287.388) rotate(180)" fill="#fff" opacity="0.4"/>
  <rect id="Rectangle_53" data-name="Rectangle 53" width="35.711" height="20.406" transform="translate(16.155 306.944)" fill="#fff" opacity="0.4"/>
  <rect id="Rectangle_54" data-name="Rectangle 54" width="35.711" height="20.406" transform="translate(131.791 327.351) rotate(180)" fill="#fff" opacity="0.4"/>
  <rect id="Rectangle_55" data-name="Rectangle 55" width="35.711" height="20.406" transform="translate(16.155 346.907)" fill="#fff" opacity="0.4"/>
  <rect id="Rectangle_56" data-name="Rectangle 56" width="35.711" height="20.406" transform="translate(131.791 367.313) rotate(180)" fill="#fff" opacity="0.4"/>
  <rect id="Rectangle_57" data-name="Rectangle 57" width="35.711" height="20.406" transform="translate(16.155 386.869)" fill="#fff" opacity="0.4"/>
  <rect id="Rectangle_58" data-name="Rectangle 58" width="35.711" height="20.406" transform="translate(131.791 407.275) rotate(180)" fill="#fff" opacity="0.4"/>
  <rect id="Rectangle_59" data-name="Rectangle 59" width="83.326" height="10.203" transform="translate(161.55 336.704)" fill="#fff" opacity="0.4"/>
  <rect id="Rectangle_60" data-name="Rectangle 60" width="83.326" height="10.203" transform="translate(161.55 352.008)" fill="#fff" opacity="0.4"/>
  <rect id="Rectangle_61" data-name="Rectangle 61" width="83.326" height="10.203" transform="translate(161.55 367.313)" fill="#fff" opacity="0.4"/>
  <rect id="Rectangle_62" data-name="Rectangle 62" width="83.326" height="10.203" transform="translate(379.217 341.805)" fill="#fff" opacity="0.4"/>
  <rect id="Rectangle_63" data-name="Rectangle 63" width="83.326" height="10.203" transform="translate(379.217 357.11)" fill="#fff" opacity="0.4"/>
  <rect id="Rectangle_64" data-name="Rectangle 64" width="83.326" height="10.203" transform="translate(379.217 372.415)" fill="#fff" opacity="0.4"/>
  <rect id="Rectangle_65" data-name="Rectangle 65" width="83.326" height="10.203" transform="translate(161.55 382.618)" fill="#fff" opacity="0.4"/>
  <rect id="Rectangle_66" data-name="Rectangle 66" width="83.326" height="10.203" transform="translate(161.55 397.923)" fill="#fff" opacity="0.4"/>
  <rect id="Rectangle_67" data-name="Rectangle 67" width="83.326" height="10.203" transform="translate(161.55 413.227)" fill="#fff" opacity="0.4"/>
  <rect id="Rectangle_68" data-name="Rectangle 68" width="22.957" height="29.759" transform="translate(275.485 231.271)" fill="#fff" opacity="0.4"/>
  <rect id="Rectangle_69" data-name="Rectangle 69" width="22.957" height="29.759" transform="translate(348.607 261.03) rotate(180)" fill="#fff" opacity="0.4"/>
  <rect id="Rectangle_70" data-name="Rectangle 70" width="22.957" height="29.759" transform="translate(275.485 278.886)" fill="#fff" opacity="0.4"/>
  <rect id="Rectangle_71" data-name="Rectangle 71" width="22.957" height="29.759" transform="translate(348.607 308.645) rotate(180)" fill="#fff" opacity="0.4"/>
  <rect id="Rectangle_72" data-name="Rectangle 72" width="22.957" height="29.759" transform="translate(275.485 326.501)" fill="#fff" opacity="0.4"/>
  <rect id="Rectangle_73" data-name="Rectangle 73" width="22.957" height="29.759" transform="translate(348.607 356.26) rotate(180)" fill="#fff" opacity="0.4"/>
  <rect id="Rectangle_74" data-name="Rectangle 74" width="22.957" height="29.759" transform="translate(275.485 374.115)" fill="#fff" opacity="0.4"/>
  <rect id="Rectangle_75" data-name="Rectangle 75" width="22.957" height="29.759" transform="translate(348.607 403.874) rotate(180)" fill="#fff" opacity="0.4"/>
  <rect id="Rectangle_76" data-name="Rectangle 76" width="30.609" height="39.112" transform="translate(475.296 71.422)" fill="#fff" opacity="0.4"/>
  <rect id="Rectangle_77" data-name="Rectangle 77" width="30.609" height="39.112" transform="translate(475.296 127.539)" fill="#fff" opacity="0.4"/>
  <rect id="Rectangle_78" data-name="Rectangle 78" width="30.609" height="39.112" transform="translate(475.296 183.657)" fill="#fff" opacity="0.4"/>
  <rect id="Rectangle_79" data-name="Rectangle 79" width="30.609" height="39.112" transform="translate(475.296 239.774)" fill="#fff" opacity="0.4"/>
  <rect id="Rectangle_80" data-name="Rectangle 80" width="30.609" height="39.112" transform="translate(475.296 295.891)" fill="#fff" opacity="0.4"/>
  <rect id="Rectangle_81" data-name="Rectangle 81" width="30.609" height="39.112" transform="translate(475.296 352.008)" fill="#fff" opacity="0.4"/>
  <rect id="Rectangle_82" data-name="Rectangle 82" width="113.935" height="33.16" transform="translate(571.801 151.347)" fill="#fff" opacity="0.4"/>
  <rect id="Rectangle_83" data-name="Rectangle 83" width="113.935" height="33.16" transform="translate(572.226 222.769)" fill="#fff" opacity="0.4"/>
  <rect id="Rectangle_84" data-name="Rectangle 84" width="113.935" height="33.16" transform="translate(572.651 294.191)" fill="#fff" opacity="0.4"/>
  <rect id="Rectangle_85" data-name="Rectangle 85" width="113.935" height="33.16" transform="translate(573.076 365.613)" fill="#fff" opacity="0.4"/>
  <rect id="Rectangle_86" data-name="Rectangle 86" width="15.305" height="32.31" transform="translate(25.508 82.475)" fill="#fff" opacity="0.4"/>
  <rect id="Rectangle_87" data-name="Rectangle 87" width="38.262" height="49.315" transform="translate(773.738 231.271)" fill="#fff" opacity="0.4"/>
  <rect id="Rectangle_88" data-name="Rectangle 88" width="38.262" height="49.315" transform="translate(773.738 302.693)" fill="#fff" opacity="0.4"/>
  <rect id="Rectangle_89" data-name="Rectangle 89" width="38.262" height="49.315" transform="translate(773.738 374.115)" fill="#fff" opacity="0.4"/>
  <path id="Path_132" data-name="Path 132" d="M168.978,588.287s-66.941,40.387,56.457,102.567c0,0,27.208-50.471-2.874-91.624a40.523,40.523,0,0,0-52.58-11.521Z" transform="translate(-126.745 -180.544)" fill="#6c63ff"/>
  <path id="Path_133" data-name="Path 133" d="M173.08,588.3s57.282,43.831,55.684,103.417" transform="translate(-130.074 -181.407)" fill="none" stroke="#535461" stroke-miterlimit="10" stroke-width="1"/>
  <path id="Path_134" data-name="Path 134" d="M240.776,672.589s-20.976-71.218,3.937-123.637A112.517,112.517,0,0,0,253.8,478.38a188.682,188.682,0,0,0-9.991-33.16" transform="translate(-138.974 -159.983)" fill="none" stroke="#535461" stroke-miterlimit="10" stroke-width="2"/>
  <path id="Path_135" data-name="Path 135" d="M258.433,403.462c0,8.724-15.8,34.01-15.8,34.01s-15.806-25.312-15.806-34.01a15.806,15.806,0,1,1,31.6,0Z" transform="translate(-138.121 -151.308)" fill="#6c63ff"/>
  <path id="Path_136" data-name="Path 136" d="M289.166,458.874c-4.744,7.329-31.766,19.981-31.766,19.981s.485-29.836,5.229-37.156a15.806,15.806,0,1,1,26.538,17.176Z" transform="translate(-142.7 -158.374)" fill="#6c63ff"/>
  <path id="Path_137" data-name="Path 137" d="M286.805,555.07c-7.788,3.928-37.505,1.207-37.505,1.207s15.483-25.508,23.28-29.436a15.806,15.806,0,1,1,14.225,28.23Z" transform="translate(-141.487 -171.951)" fill="#6c63ff"/>
  <path id="Path_138" data-name="Path 138" d="M269.367,628.608c-7.015,5.187-36.757,7.533-36.757,7.533s10.943-27.761,17.966-32.948a15.8,15.8,0,1,1,18.793,25.417Z" transform="translate(-138.988 -183.173)" fill="#6c63ff"/>
  <path id="Path_139" data-name="Path 139" d="M217.526,483.881c6.258,6.079,35.43,12.38,35.43,12.38s-7.142-28.968-13.409-35.048a15.8,15.8,0,0,0-22.022,22.668Z" transform="translate(-136.012 -161.708)" fill="#6c63ff"/>
  <path id="Path_140" data-name="Path 140" d="M197.379,569.361c7.788,3.937,37.505,1.216,37.505,1.216s-15.483-25.508-23.272-29.436a15.8,15.8,0,1,0-14.235,28.223Z" transform="translate(-132.411 -174.091)" fill="#6c63ff"/>
  <path id="Path_141" data-name="Path 141" d="M190.331,655.768c7.015,5.187,36.765,7.533,36.765,7.533s-10.951-27.761-17.975-32.948a15.8,15.8,0,1,0-18.793,25.417Z" transform="translate(-131.697 -187.24)" fill="#6c63ff"/>
  <path id="Path_142" data-name="Path 142" d="M258.433,403.462c0,8.724-15.8,34.01-15.8,34.01s-15.806-25.312-15.806-34.01a15.806,15.806,0,1,1,31.6,0Z" transform="translate(-138.121 -151.308)" opacity="0.25"/>
  <path id="Path_143" data-name="Path 143" d="M289.166,458.874c-4.744,7.329-31.766,19.981-31.766,19.981s.485-29.836,5.229-37.156a15.806,15.806,0,1,1,26.538,17.176Z" transform="translate(-142.7 -158.374)" opacity="0.25"/>
  <path id="Path_144" data-name="Path 144" d="M286.805,555.07c-7.788,3.928-37.505,1.207-37.505,1.207s15.483-25.508,23.28-29.436a15.806,15.806,0,1,1,14.225,28.23Z" transform="translate(-141.487 -171.951)" opacity="0.25"/>
  <path id="Path_145" data-name="Path 145" d="M269.367,628.608c-7.015,5.187-36.757,7.533-36.757,7.533s10.943-27.761,17.966-32.948a15.8,15.8,0,1,1,18.793,25.417Z" transform="translate(-138.988 -183.173)" opacity="0.25"/>
  <path id="Path_146" data-name="Path 146" d="M217.526,483.881c6.258,6.079,35.43,12.38,35.43,12.38s-7.142-28.968-13.409-35.048a15.8,15.8,0,0,0-22.022,22.668Z" transform="translate(-136.012 -161.708)" opacity="0.25"/>
  <path id="Path_147" data-name="Path 147" d="M197.379,569.361c7.788,3.937,37.505,1.216,37.505,1.216s-15.483-25.508-23.272-29.436a15.8,15.8,0,1,0-14.235,28.223Z" transform="translate(-132.411 -174.091)" opacity="0.25"/>
  <path id="Path_148" data-name="Path 148" d="M190.331,655.768c7.015,5.187,36.765,7.533,36.765,7.533s-10.951-27.761-17.975-32.948a15.8,15.8,0,1,0-18.793,25.417Z" transform="translate(-131.697 -187.24)" opacity="0.25"/>
  <path id="Path_149" data-name="Path 149" d="M1010.826,650.958s-20.976-71.218,3.937-123.637a112.52,112.52,0,0,0,9.1-70.572,190.137,190.137,0,0,0-9.991-33.16" transform="translate(-254.28 -156.744)" fill="none" stroke="#535461" stroke-miterlimit="10" stroke-width="2"/>
  <path id="Path_150" data-name="Path 150" d="M1028.523,381.9c0,8.724-15.806,34.01-15.806,34.01S996.91,390.595,996.91,381.9a15.806,15.806,0,0,1,31.613,0Z" transform="translate(-253.433 -148.134)" fill="#6c63ff"/>
  <path id="Path_151" data-name="Path 151" d="M1059.216,437.245c-4.744,7.329-31.766,19.981-31.766,19.981s.493-29.836,5.238-37.156a15.8,15.8,0,1,1,26.528,17.175Z" transform="translate(-258.006 -155.136)" fill="#6c63ff"/>
  <path id="Path_152" data-name="Path 152" d="M1056.864,533.44c-7.8,3.928-37.514,1.207-37.514,1.207s15.492-25.508,23.28-29.436a15.807,15.807,0,1,1,14.233,28.229Z" transform="translate(-256.793 -168.712)" fill="#6c63ff"/>
  <path id="Path_153" data-name="Path 153" d="M1039.425,606.978c-7.023,5.187-36.765,7.533-36.765,7.533s10.951-27.761,17.966-32.948a15.806,15.806,0,1,1,18.8,25.415Z" transform="translate(-254.294 -179.934)" fill="#6c63ff"/>
  <path id="Path_154" data-name="Path 154" d="M987.576,462.22c6.266,6.079,35.43,12.38,35.43,12.38s-7.142-28.968-13.4-35.048a15.806,15.806,0,1,0-22.031,22.669Z" transform="translate(-251.318 -158.464)" fill="#6c63ff"/>
  <path id="Path_155" data-name="Path 155" d="M967.469,547.731c7.8,3.937,37.514,1.216,37.514,1.216S989.5,523.439,981.7,519.511a15.8,15.8,0,1,0-14.235,28.223Z" transform="translate(-247.723 -170.853)" fill="#6c63ff"/>
  <path id="Path_156" data-name="Path 156" d="M960.382,634.138c7.023,5.187,36.765,7.533,36.765,7.533s-10.951-27.753-17.966-32.948a15.806,15.806,0,1,0-18.8,25.415Z" transform="translate(-247.003 -184.001)" fill="#6c63ff"/>
  <path id="Path_157" data-name="Path 157" d="M900.218,661.336s-11.274-38.262,2.117-66.439a60.513,60.513,0,0,0,4.889-37.922,101.813,101.813,0,0,0-5.374-17.8" transform="translate(-238.29 -174.051)" fill="none" stroke="#535461" stroke-miterlimit="10" stroke-width="2"/>
  <path id="Path_158" data-name="Path 158" d="M909.725,516.733c0,4.693-8.5,18.3-8.5,18.3s-8.5-13.6-8.5-18.3a8.5,8.5,0,1,1,17.005,0Z" transform="translate(-237.831 -169.418)" fill="#6c63ff"/>
  <path id="Path_159" data-name="Path 159" d="M926.223,546.537c-2.551,3.937-17.073,10.739-17.073,10.739s.264-16.036,2.814-19.973a8.5,8.5,0,0,1,14.259,9.234Z" transform="translate(-240.292 -173.238)" fill="#6c63ff"/>
  <path id="Path_160" data-name="Path 160" d="M924.96,598.2c-4.192,2.109-20.16.646-20.16.646s8.324-13.706,12.507-15.815A8.5,8.5,0,0,1,924.96,598.2Z" transform="translate(-239.64 -180.504)" fill="#6c63ff"/>
  <path id="Path_161" data-name="Path 161" d="M915.582,637.642c-3.767,2.789-19.752,4.047-19.752,4.047s5.884-14.914,9.659-17.7a8.5,8.5,0,1,1,10.093,13.655Z" transform="translate(-238.297 -186.459)" fill="#6c63ff"/>
  <path id="Path_162" data-name="Path 162" d="M887.674,559.871c3.4,3.265,19.037,6.649,19.037,6.649s-3.835-15.568-7.2-18.833a8.5,8.5,0,1,0-11.836,12.184Z" transform="translate(-236.646 -174.923)" fill="#6c63ff"/>
  <path id="Path_163" data-name="Path 163" d="M876.952,605.885c4.192,2.109,20.16.655,20.16.655s-8.324-13.706-12.516-15.823a8.5,8.5,0,0,0-7.652,15.169Z" transform="translate(-234.817 -181.656)" fill="#6c63ff"/>
  <path id="Path_164" data-name="Path 164" d="M873.16,652.335c3.767,2.789,19.751,4.047,19.751,4.047s-5.909-14.922-9.65-17.711a8.5,8.5,0,0,0-10.1,13.664Z" transform="translate(-234.426 -188.729)" fill="#6c63ff"/>
  <path id="Path_165" data-name="Path 165" d="M376.638,155.987h-5.85a4.1,4.1,0,1,0,0-8.188H323.4a4.1,4.1,0,1,0,0,8.188h5.85a4.1,4.1,0,1,0,0,8.2h-8.188a4.1,4.1,0,1,0,0,8.188h47.385a4.1,4.1,0,1,0,0-8.188h8.188a4.1,4.1,0,0,0,0-8.2Z" transform="translate(-151.591 -115.447)" fill="#252223" opacity="0.1"/>
  <path id="Path_166" data-name="Path 166" d="M622.639,276.987h-5.85a4.1,4.1,0,1,0,0-8.188H569.4a4.1,4.1,0,1,0,0,8.188h5.85a4.1,4.1,0,0,0,0,8.2h-8.188a4.1,4.1,0,1,0,0,8.188h47.385a4.1,4.1,0,1,0,0-8.188h8.188a4.1,4.1,0,0,0,0-8.2Z" transform="translate(-188.427 -133.565)" fill="#252223" opacity="0.1"/>
  <path id="Path_167" data-name="Path 167" d="M1041.639,118.987h-5.85a4.1,4.1,0,1,0,0-8.188H988.4a4.1,4.1,0,1,0,0,8.188h5.85a4.1,4.1,0,0,0,0,8.2h-8.188a4.1,4.1,0,1,0,0,8.188h47.385a4.1,4.1,0,1,0,0-8.188h8.188a4.1,4.1,0,0,0,0-8.2Z" transform="translate(-251.167 -109.906)" fill="#252223" opacity="0.1"/>
  <path id="Path_168" data-name="Path 168" d="M827.775,638.141a1.275,1.275,0,1,0-1.275-1.275A1.275,1.275,0,0,0,827.775,638.141Z" transform="translate(-227.916 -188.488)" fill="#535461"/>
  <g id="Group_100" data-name="Group 100" transform="translate(222.848 113.271)" opacity="0.5">
    <path id="Path_169" data-name="Path 169" d="M605.608,506.373l-12.354-58.158h1.267l-.2-.986h.357l-6.394-31.46s.323-32.863,1.879-45.574c1.139-9.276,2.942-21.1,1.624-31.043a9.345,9.345,0,0,0,.5-.85,8.97,8.97,0,0,0,.969-3.4,14.021,14.021,0,0,0-1.071-8.2l12.847-8.026c.289,0,.587.06.85.077a2.72,2.72,0,0,0-.213-.553,28.569,28.569,0,0,0,28.28-18.578,18.943,18.943,0,0,0,4.141,4.455c3.461,2.593,8.911,3.171,11.793-.051a9.922,9.922,0,0,0,2.066-4.447c.17-.731.289-1.479.391-2.219,1.633-8.69-1.947-17.651-6.564-25.27-5.773-9.514-13.434-18.128-23.17-23.535s-21.682-7.346-32.216-3.741S569.25,258.2,568.29,269.294c-.476,5.671.2,8.3-.969,13.868-.587,2.772.68,8.171.663,11.232a13.856,13.856,0,0,0-.2,1.7c-.17,3.4,1.182,6.615,2.168,9.88-13.893.7-50.429,3.512-60.981,14.242-13.128,13.341-45.319,18.111-45.319,18.111l-53.609,10.79-18.706,7.941.213.85-.374.162s.663,2.474,1.616,5.739a24.292,24.292,0,0,0-7.729,14.454c-1.037,5.773-.485,13.2,3.171,22.685,0,0,18.459,33.9,19.735,47.572l23.3,46.5c-2,3.988-21.962,44.29-25.4,66.848a46.075,46.075,0,0,0-.553,4.906s-.127,1.19-.442,3.171c-1.369,8.358-5.7,28.909-16.266,38.517h0l.136.119h0l-.306.3.238.2c-3.172,6.062,1.411,14.276,1.411,14.276l5.212,23.28,5.833.944,6.139-2.5,3.4,6.539s26.486,4.251,34.01,4-6.377-13-11.249-16.784c-2.7-2.092-4.821-10.688-6.164-17.924a11.273,11.273,0,0,0,1.9-1.964s-3.239-17.005,6.513-40.336c4.158-9.931,8.63-21.35,12.414-31.187,2.032,13.213,4.166,26.826,5.739,36.119,2.287,13.46,1.99,21.673,1.284,26.307a15.628,15.628,0,0,1-1.131,4.7,1.2,1.2,0,0,1,.085.136,2.437,2.437,0,0,1-.162.349c.051.085.1.161.145.247-5.323,6.088.221,16.019.221,16.019l5.212,23.212,5.833.944,6.139-2.5,3.4,6.538s26.486,4.251,34.01,4-6.377-13-11.257-16.784c-3.8-2.95-6.436-18.791-7.414-25.584.706-.068,1.1-.119,1.1-.119l-.077-.468h.162l-3.333-19.488c-5.7-4.906-4.906-74.6-4.906-74.6s-2.967,7.287-3.061,6.7c.289-1.173,1.36-4.489,3.843-11.555a69.525,69.525,0,0,0,3.223-12.482c2.7-16.589-2.33-26.732-2.33-26.732.332-3.333-3.18-16.283-7.329-30.074l13.035-25.406a10.39,10.39,0,0,0,5.68.468l9.872-17.855s20.406-12.159,26.248-11.215c5.433.85,22.455-2.874,29.036-9.965a13.47,13.47,0,0,0,1.292-1.658c5.3-8.12,3.12,42.394,3.12,42.394l-2.831,17.5-.153.969,8.443.17,19.9,68.242s1.25,23.144,23.858,28.288S605.608,506.373,605.608,506.373ZM469.71,427.5c-1.224-3.775-2.3-7.032-3.1-9.472l4.209-3.282s.527.442,1.42,1.148Z" transform="translate(-384.594 -242.969)" fill="url(#linear-gradient)"/>
  </g>
  <path id="Path_170" data-name="Path 170" d="M502.3,677.9s2.882,24.283,7.652,27.974,18.306,16.078,10.968,16.351-33.16-3.894-33.16-3.894l-3.342-6.377-5.952,2.432-5.688-.918-5.1-22.693s-7.159-12.822,2.916-18S502.3,677.9,502.3,677.9Z" transform="translate(-173.817 -193.838)" fill="#3a384d"/>
  <path id="Path_171" data-name="Path 171" d="M472.744,440s20.024,59.595,19.267,67.247c0,0,7.338,14.795-.757,37.794s-.85,5.212-.85,5.212-.765,67.927,4.778,72.714l3.248,18.995s-31.222,3.707-36.476-5.892c0,0,4.064-7.117.085-30.609s-11.649-75.257-11.649-75.257L429.61,412.13Z" transform="translate(-168.486 -155.028)" opacity="0.1"/>
  <path id="Path_172" data-name="Path 172" d="M472.834,439.442s20.024,59.629,19.267,67.281c0,0,7.338,14.795-.757,37.794s-.85,5.212-.85,5.212-.765,67.936,4.778,72.714l3.248,19s-31.222,3.7-36.476-5.9c0,0,4.064-7.117.085-30.609s-11.657-75.282-11.657-75.282L429.7,411.57Z" transform="translate(-168.5 -154.944)" fill="#bec7de"/>
  <path id="Path_173" data-name="Path 173" d="M434.936,414.678,455.3,530.433s7.652,51.789,11.657,75.282-.085,30.609-.085,30.609c1.53,2.8,5.246,4.455,9.753,5.416-6.326-.74-12.031-2.466-14.021-6.1,0,0,4.073-7.117.094-30.609s-11.657-75.282-11.657-75.282L430.26,411.66Z" transform="translate(-168.583 -154.957)" opacity="0.1"/>
  <path id="Path_174" data-name="Path 174" d="M428.858,668.891s2.874,24.284,7.652,27.974,18.306,16.078,10.968,16.351-33.16-3.894-33.16-3.894l-3.342-6.377-5.952,2.44-5.688-.927-5.1-22.693s-7.159-12.822,2.908-18S428.858,668.891,428.858,668.891Z" transform="translate(-162.82 -192.489)" fill="#3a384d"/>
  <path id="Path_175" data-name="Path 175" d="M472.744,440s20.024,59.595,19.267,67.247c0,0,7.338,14.795-.757,37.794s-.85,5.212-.85,5.212-.765,67.927,4.778,72.714l3.248,18.995s-31.222,3.707-36.476-5.892c0,0,4.064-7.117.085-30.609s-11.649-75.257-11.649-75.257L429.61,412.13Z" transform="translate(-168.486 -155.028)" opacity="0.1"/>
  <path id="Path_176" data-name="Path 176" d="M403.273,382.132s-22.285,8.554-10.3,39.656c0,0,18,33.041,19.25,46.373l22.787,45.489s-24.3,48.091-25.38,69.789c0,0-3.248,29.13-16.359,41.1,0,0,28.2,24,38.7,10.144,0,0-3.154-16.546,6.36-39.316s20.8-53.482,20.8-53.482,27.285-18.442,9.106-56.381l-20.406-84.474-.332-19.012L431.85,376.58Z" transform="translate(-162.47 -149.705)" opacity="0.1"/>
  <path id="Path_177" data-name="Path 177" d="M402.073,382.5s-22.285,8.554-10.3,39.656c0,0,17.992,33.05,19.241,46.382L433.8,514.025s-24.3,48.082-25.363,69.789c0,0-3.248,29.121-16.368,41.1,0,0,28.2,24,38.712,10.144,0,0-3.163-16.555,6.351-39.316s20.8-53.516,20.8-53.516,27.293-18.442,9.115-56.381l-20.406-84.474-.332-19.012-15.645-5.442Z" transform="translate(-162.291 -149.756)" opacity="0.1"/>
  <path id="Path_178" data-name="Path 178" d="M402.163,381.951s-22.285,8.562-10.3,39.656c0,0,13.222,24.275,17.779,39.605a118.185,118.185,0,0,0,7.652,19.122l16.6,33.16s-24.3,48.091-25.372,69.789c0,0-3.248,29.13-16.368,41.1,0,0,28.2,24,38.712,10.144,0,0-3.163-16.546,6.351-39.316s20.8-53.516,20.8-53.516,27.293-18.442,9.115-56.381l-20.406-84.474-.332-19.012-15.645-5.442Z" transform="translate(-162.304 -149.676)" fill="#bec7de"/>
  <path id="Path_179" data-name="Path 179" d="M402.163,381.946l28.611-5.586,3.733,1.3-26.656,5.2s-22.285,8.554-10.3,39.656c0,0,13.213,24.275,17.779,39.605a118.189,118.189,0,0,0,7.652,19.122l16.606,33.16s-24.335,48.074-25.38,69.772c0,0-3.256,29.13-16.367,41.1,0,0,12.15,10.339,23.467,13.528-12.482-.255-29.156-14.454-29.156-14.454,13.12-11.972,16.368-41.1,16.368-41.1,1.071-21.7,25.372-69.789,25.372-69.789L417.3,480.3a118.185,118.185,0,0,1-7.652-19.122c-4.557-15.3-17.779-39.605-17.779-39.605C379.878,390.508,402.163,381.946,402.163,381.946Z" transform="translate(-162.304 -149.672)" opacity="0.1"/>
  <path id="Path_180" data-name="Path 180" d="M507.444,451.871,489.7,486.434s5.2,46.05-4.736,47.36-5.952-50.54-5.952-50.54l9.565-44.154Z" transform="translate(-175.765 -159.066)" fill="#be7c5e"/>
  <path id="Path_181" data-name="Path 181" d="M622.657,479.907,635.343,539.8s31.137,41.977,9.1,36.961-23.255-27.608-23.255-27.608L599.93,476.2Z" transform="translate(-193.99 -164.622)" fill="#be7c5e"/>
  <path id="Path_182" data-name="Path 182" d="M634.033,331.878,602.658,351.6,591.46,321.6s25.967,1.769,28.994-7.95S634.033,331.878,634.033,331.878Z" transform="translate(-192.721 -139.974)" fill="#be7c5e"/>
  <path id="Path_183" data-name="Path 183" d="M492.087,238.856l-2.007-8.6-30.924,1.811-12.456,50,23.2.833L482.9,262.646l7.083-19.76Z" transform="translate(-66.888 -34.479)" fill="#be7c5e"/>
  <path id="Path_184" data-name="Path 184" d="M577.917,336.972l2.551-14.412s-57.231.714-70.028,13.715-44.171,17.66-44.171,17.66l-52.257,10.509L395.74,372.19s5.153,19.3,7.363,20.636,26.885-18.995,26.885-18.995l9.353,2.483-30.456,32.021L465.1,463.6l1.037-30.456,7.2-5.629s17.116,14.454,24.751,12.261l9.625-17.4s19.9-11.853,25.584-10.934c5.3.85,21.894-2.8,28.305-9.71a12.127,12.127,0,0,0,1.224-1.556c5.17-7.916,3.044,41.323,3.044,41.323l-2.908,18,31.009.638-6.224-30.66s.315-32.029,1.828-44.426,4.251-29.445-1.3-40.073l-10.917,10.39-18.995,30.49,7.21-26.545Z" transform="translate(-163.415 -141.616)" opacity="0.1"/>
  <path id="Path_185" data-name="Path 185" d="M578.118,335.786,575.405,321s-51.942,1.088-64.739,14.089-44.214,17.651-44.214,17.651L414.2,363.258,396,371.012s5.153,19.3,7.363,20.627,26.894-18.986,26.894-18.986l9.353,2.483-30.456,32.021,56.211,55.267,1.037-30.465,7.227-5.637s17.116,14.454,24.751,12.269l9.625-17.4s19.786-11.853,25.508-10.909c5.3.85,21.894-2.806,28.305-9.718A12.125,12.125,0,0,0,563.042,399c5.17-7.916,3.044,41.331,3.044,41.331l-2.908,18,31.009.638-6.224-30.66s.315-32.038,1.828-44.426,4.251-29.453-1.3-40.073L577.573,354.16l-19.02,30.465,7.21-26.545Z" transform="translate(-163.453 -141.382)" fill="#7faff2"/>
  <path id="Path_186" data-name="Path 186" d="M527.118,360.53s-30.958,26.112-34.2,40.175" transform="translate(-177.966 -147.301)" opacity="0.1"/>
  <path id="Path_187" data-name="Path 187" d="M567.949,387s-23.807,18.026-28.059,29.487" transform="translate(-184.999 -151.265)" opacity="0.1"/>
  <path id="Path_188" data-name="Path 188" d="M490.648,418.92s-2.236,10.815-2.678,16.58" transform="translate(-177.225 -156.045)" opacity="0.1"/>
  <path id="Path_189" data-name="Path 189" d="M470.651,442.686S434.991,410.674,430,411.328" transform="translate(-168.545 -154.906)" opacity="0.1"/>
  <path id="Path_190" data-name="Path 190" d="M624.633,314.289c2.9-9.3,12.694,15.917,13.519,18.085a26.214,26.214,0,0,1-2.78-.306,27.719,27.719,0,0,1-18.5-11.725C620.688,319.144,623.732,317.248,624.633,314.289Z" transform="translate(-196.526 -140.07)" opacity="0.1"/>
  <circle id="Ellipse_24" data-name="Ellipse 24" cx="27.838" cy="27.838" r="27.838" transform="translate(415.072 136.135)" fill="#be7c5e"/>
  <path id="Path_191" data-name="Path 191" d="M656.935,298.8c2.185,3.6,4.175,7.5,7.55,10.016s8.69,3.086,11.5-.051a9.693,9.693,0,0,0,2.007-4.336c2.058-8.766-1.539-17.855-6.207-25.584-5.629-9.276-13.1-17.668-22.583-22.957s-21.138-7.168-31.409-3.648-18.706,12.924-19.556,23.739c-.468,5.527.927,11.164-.221,16.6-.6,2.831-1.879,5.527-2.024,8.418-.272,5.365,3.4,10.356,3.069,15.721-.2,3.308-1.9,6.309-2.933,9.463-2.551,7.6-1.173,15.874-1.7,23.867S590.4,367,582.75,369.367c8.46,4.251,20.126-.221,23.569-9.047,1.046-2.7,1.428-5.688,3.018-8.1,2.687-4.081,8.273-5.7,10.526-10.033s.3-9.616-2.168-13.825-5.544-8.443-5.595-13.315a11.717,11.717,0,0,1,7.652-10.9,33.039,33.039,0,0,1,7.27-1.122,38.492,38.492,0,0,0,16.869-6.436C650.431,292.308,652.182,290.981,656.935,298.8Z" transform="translate(-191.417 -130.818)" opacity="0.1"/>
  <path id="Path_192" data-name="Path 192" d="M657.142,297.376c2.185,3.605,4.175,7.5,7.55,10.025s8.69,3.086,11.5-.051a9.736,9.736,0,0,0,2.007-4.336c2.058-8.766-1.539-17.856-6.207-25.584-5.629-9.285-13.1-17.668-22.583-22.957s-21.138-7.159-31.409-3.648-20.61,13.06-21.52,23.875c-.468,5.527.2,8.086-.944,13.511-.6,2.831.791,8.5.646,11.376-.272,5.365,3.4,10.356,3.069,15.721-.2,3.308-1.9,6.309-2.933,9.455-2.551,7.61-1.173,15.883-1.7,23.875s-4.022,16.946-11.674,19.309c8.46,4.251,20.126-.221,23.569-9.047,1.046-2.687,1.428-5.68,3.018-8.094,2.687-4.081,8.273-5.7,10.526-10.033s.3-9.625-2.16-13.834-5.552-8.435-5.6-13.315a11.717,11.717,0,0,1,7.652-10.892,33.036,33.036,0,0,1,7.27-1.122,38.594,38.594,0,0,0,16.869-6.436C650.655,290.88,652.406,289.562,657.142,297.376Z" transform="translate(-191.445 -130.606)" fill="#723647"/>
  <rect id="Rectangle_90" data-name="Rectangle 90" width="15.33" height="3.359" rx="1.679" transform="translate(421.4 185.061) rotate(-170.82)" fill="#252a62"/>
  <path id="Path_193" data-name="Path 193" d="M573.64,594.88c.2,13.315,11.427,23.807,24.743,23.807h1.854a6.275,6.275,0,0,1,4.387,1.769,6.071,6.071,0,0,1,1.777,3.112,5.67,5.67,0,0,1,.187,1.471v23.51a23.544,23.544,0,0,0,3.724,12.754,33.645,33.645,0,0,1,5.544,18.145h0A11.343,11.343,0,0,0,627.4,690.79a11.572,11.572,0,0,0,11.1-11.7v-5.875l3.095.357v5.892a11.334,11.334,0,0,0,11.538,11.326,11.574,11.574,0,0,0,11.113-11.7v-2.976c3.086,1.292,20.593,1.292,25.448,0l1.318-.1v3.4a11.342,11.342,0,0,0,11.547,11.376,11.572,11.572,0,0,0,11.1-11.7v-4.88l1.029-.094v5.357a11.342,11.342,0,0,0,11.547,11.317A11.53,11.53,0,0,0,737.3,680.68a13.983,13.983,0,0,0,.1-1.59V654.5a37.675,37.675,0,0,0-8.035-23.3,6.989,6.989,0,0,1-.2-8.248c5.765-8.443,14.293-22.693,14.012-32.795a11.053,11.053,0,0,0-2.7-7.474c-.111-.128-.23-.247-.34-.366-8.3-8.69-22.906-1.854-21.639,10.093a33.762,33.762,0,0,1-.85,11.946,37.018,37.018,0,0,1-2.321,6.4,10.883,10.883,0,0,1-11.113,6.181,37.916,37.916,0,0,0-4.642-.281H651.966a13.375,13.375,0,0,1-12.669-9.072,12.924,12.924,0,0,1-.723-4.311V566.21a7.21,7.21,0,0,0-7.431-7.21,7.04,7.04,0,0,0-4.974,2.321,7.729,7.729,0,0,0-2.007,5.187,3.809,3.809,0,0,1-3.818,3.818H597.838a24.2,24.2,0,0,0-24.2,24.556Z" transform="translate(-190.052 -177.019)" fill="#f3ad55"/>
  <path id="Path_194" data-name="Path 194" d="M740,703.424a11.342,11.342,0,0,0,11.19,8.5,11.53,11.53,0,0,0,11.053-10.11C755.3,699.972,745.8,698.7,740,703.424Z" transform="translate(-214.963 -198.156)" fill="#fbdca3"/>
  <path id="Path_195" data-name="Path 195" d="M712.1,703.424a11.351,11.351,0,0,0,11.2,8.5,11.521,11.521,0,0,0,11-10.11C727.447,699.972,717.967,698.7,712.1,703.424Z" transform="translate(-210.786 -198.156)" fill="#fbdca3"/>
  <path id="Path_196" data-name="Path 196" d="M654,703.424a11.342,11.342,0,0,0,11.189,8.5,11.529,11.529,0,0,0,11.053-10.11C669.3,699.972,659.816,698.7,654,703.424Z" transform="translate(-202.086 -198.156)" fill="#fbdca3"/>
  <path id="Path_197" data-name="Path 197" d="M623.7,703.424a11.342,11.342,0,0,0,11.2,8.5,11.521,11.521,0,0,0,11-10.11C639.047,699.972,629.541,698.7,623.7,703.424Z" transform="translate(-197.549 -198.156)" fill="#fbdca3"/>
  <path id="Path_198" data-name="Path 198" d="M742.94,607.779c8-3.214,17.762-9.1,25.508-14.2a11.053,11.053,0,0,0-2.7-7.474c-.111-.128-.23-.247-.34-.366-8.3-8.69-22.906-1.854-21.639,10.093A33.763,33.763,0,0,1,742.94,607.779Z" transform="translate(-215.404 -180.438)" fill="#fbdca3"/>
  <path id="Path_199" data-name="Path 199" d="M721.323,626.888s-22.03,27.736-58.073-.068" transform="translate(-203.471 -187.175)" fill="#fbdca3"/>
  <path id="Path_200" data-name="Path 200" d="M648.883,566.27s-13.383,17.507,0,39.112" transform="translate(-200.429 -178.108)" fill="#fbdca3"/>
  <path id="Path_201" data-name="Path 201" d="M612.39,636.51s11.793,14.641.153,26.29" transform="translate(-195.855 -188.626)" fill="#fbdca3"/>
  <path id="Path_202" data-name="Path 202" d="M611.18,630.554c.85.85.578,1.616.85,2.823l38.262-10.025c-2.058-1.59-4.617-3.469-5.459-5.952C640.259,620.929,631.187,626.9,611.18,630.554Z" transform="translate(-195.674 -185.765)" opacity="0.1"/>
  <path id="Path_203" data-name="Path 203" d="M610.08,629.049a6.071,6.071,0,0,1,1.777,3.112l37.318-9.727a13.341,13.341,0,0,1-4.489-6.283C640.094,619.713,630.087,625.375,610.08,629.049Z" transform="translate(-195.509 -185.577)" fill="#383f4d"/>
  <path id="Path_204" data-name="Path 204" d="M643.629,618.57s-11.674,8.783-31.239,11.5" transform="translate(-195.855 -185.94)" opacity="0.1"/>
  <path id="Path_205" data-name="Path 205" d="M643.629,617.36s-11.674,8.783-31.239,11.5" transform="translate(-195.855 -185.759)" fill="#f3ad55"/>
  <path id="Path_206" data-name="Path 206" d="M610.459,615.983S590.9,622.165,585.75,602.6Z" transform="translate(-191.866 -183.548)" opacity="0.1"/>
  <path id="Path_207" data-name="Path 207" d="M610.459,614.773S590.9,620.955,585.75,601.39Z" transform="translate(-191.866 -183.367)" fill="#fbdca3"/>
  <ellipse id="Ellipse_25" data-name="Ellipse 25" cx="2.058" cy="3.605" rx="2.058" ry="3.605" transform="translate(381.529 411.841)" fill="#383f4d"/>
  <path id="Path_208" data-name="Path 208" d="M756.375,679.748,752.26,646.8s12.354,19.556,4.115,32.948" transform="translate(-216.799 -190.167)" opacity="0.1"/>
  <path id="Path_209" data-name="Path 209" d="M751.05,646.8s12.354,19.556,4.115,32.948Z" transform="translate(-216.618 -190.167)" fill="#fbdca3"/>
</svg>
