<svg xmlns="http://www.w3.org/2000/svg" xmlns:xlink="http://www.w3.org/1999/xlink" width="596.74" height="517.06" viewBox="0 0 596.74 517.06">
  <defs>
    <linearGradient id="linear-gradient" x1="0.5" y1="1" x2="0.5" gradientUnits="objectBoundingBox">
      <stop offset="0" stop-color="gray" stop-opacity="0.251"/>
      <stop offset="0.54" stop-color="gray" stop-opacity="0.122"/>
      <stop offset="1" stop-color="gray" stop-opacity="0.102"/>
    </linearGradient>
    <linearGradient id="linear-gradient-2" x1="0.5" y1="1" x2="0.5" y2="0" xlink:href="#linear-gradient"/>
    <linearGradient id="linear-gradient-3" x1="0.5" y1="1" x2="0.5" y2="0" xlink:href="#linear-gradient"/>
    <linearGradient id="linear-gradient-5" x1="0.5" y1="1" x2="0.5" y2="0" xlink:href="#linear-gradient"/>
    <linearGradient id="linear-gradient-6" x1="0.5" y1="1" x2="0.5" gradientUnits="objectBoundingBox">
      <stop offset="0" stop-color="#fff"/>
      <stop offset="1"/>
    </linearGradient>
  </defs>
  <g id="undraw_playful_cat_ql3n" transform="translate(-0.001 -0.009)">
    <g id="Group_104" data-name="Group 104" transform="translate(220.975 48.404)" opacity="0.5">
      <path id="Path_210" data-name="Path 210" d="M568.092,201.672c-2.636-14.459-5.316-29.071-11.276-42.505a93.357,93.357,0,0,0-29.867-37.182,10.047,10.047,0,0,0-6.768-2h0c-3.744.331-4.922,2.636-5.526,5.093q-.105.43-.191.86c-1.49,7.335-.5,14.58,1.655,21.724,2.687,8.914,7.176,17.668,10.9,26.231a175.026,175.026,0,0,1,13.237,48.547c.274,2.222.49,4.495.547,6.762a39.419,39.419,0,0,1-.1,4.056,24.226,24.226,0,0,1-1.776,7.7,12.021,12.021,0,0,1-.567,1.2q-.306.56-.637,1.159c-2.286,3.737-5.864,6.469-9.359,9.117s-7.456,5.488-11.639,6.914h.14a16.79,16.79,0,0,1-6.061,1c-6.45-.2-13.326-5.4-19.82-4.177h-.038c-.242.045-.484.1-.732.166-6.647,1.8-11.74,12.237-11.779,18.916v.057q0,.789.057,1.534a4.676,4.676,0,0,0,.064.522c.038.331.07.637.127.987.032.2.083.382.121.579s.121.573.2.847.121.382.178.579.166.516.255.764.153.376.229.554.2.471.318.7.185.357.28.528.242.439.376.637.216.331.325.5.28.408.433.6.242.312.369.465.318.376.484.554.267.293.407.433.357.35.535.516.287.267.439.395.388.318.586.478.306.242.465.363.427.3.637.439l.484.318c.229.146.465.28.7.414l.49.28c.261.14.522.267.789.395l.465.229c.382.172.77.337,1.159.5l.573.216c.3.108.6.223.9.325l.637.2.739.223.726.185.7.172.777.166.675.134.815.14.637.1.847.108.637.07.879.083.637.045.9.051h3.5l1.038-.045h.369l1.108-.083h.21a36.291,36.291,0,0,0,9.2-2.025c9.4-3.559,17.362-10.079,24.748-16.9,14.644-13.523,28.466-30.3,29.638-50.2C570.708,216.074,569.4,208.835,568.092,201.672Z" transform="translate(-478.44 -119.96)" fill="url(#linear-gradient)"/>
    </g>
    <path id="Path_211" data-name="Path 211" d="M518.87,287.444c8.589-3.253,15.866-9.206,22.615-15.44,13.37-12.358,26.015-27.689,27.085-45.841.388-6.641-.809-13.262-2-19.8-2.407-13.211-4.858-26.563-10.3-38.838a85.316,85.316,0,0,0-27.295-33.974,9.174,9.174,0,0,0-6.176-1.834c-3.82.337-4.724,2.929-5.227,5.412-3.062,15.064,5.335,29.727,11.46,43.817a159.946,159.946,0,0,1,12.1,44.364c.8,6.488,1.076,13.51-2.337,19.1-2.088,3.413-5.361,5.915-8.551,8.328-4.775,3.616-10.066,7.4-16.051,7.22-6.131-.185-12.676-5.316-18.814-3.655s-10.728,11.18-10.766,17.286C484.521,290.061,507.371,291.8,518.87,287.444Z" transform="translate(-259.707 -75.819)" fill="#ffd180"/>
    <g id="Group_105" data-name="Group 105" transform="translate(224.897 55.843)" opacity="0.1">
      <path id="Path_212" data-name="Path 212" d="M557.249,244.347c-2.088,3.413-5.361,5.915-8.551,8.328s-6.813,5.017-10.633,6.316c5.437-.363,10.3-3.82,14.714-7.15,3.183-2.413,6.462-4.915,8.551-8.328,3.413-5.577,3.132-12.6,2.337-19.1a159.936,159.936,0,0,0-12.1-44.364c-6.138-14.09-14.536-28.759-11.46-43.817.357-1.745.93-3.527,2.547-4.559a8.208,8.208,0,0,0-1.4,0c-3.82.337-4.724,2.929-5.227,5.412-3.062,15.064,5.335,29.727,11.46,43.817a159.934,159.934,0,0,1,12.1,44.364C560.382,231.747,560.662,238.77,557.249,244.347Z" transform="translate(-503.048 -131.643)"/>
      <path id="Path_213" data-name="Path 213" d="M488.675,343.6c.032-5.641,4.018-14.2,9.417-16.764a9.876,9.876,0,0,0-2.725.318c-6.074,1.643-10.728,11.18-10.766,17.286-.1,15.414,19.776,17.961,31.777,14.695C504.458,360.869,488.611,357.374,488.675,343.6Z" transform="translate(-484.599 -202.559)"/>
    </g>
    <g id="Group_106" data-name="Group 106" transform="translate(0.001 85.218)" opacity="0.5">
      <path id="Path_214" data-name="Path 214" d="M705.254,368.493s-17.108-40.372-25.219-72.149l-3.693-21.762a16.108,16.108,0,0,0,7.245-13.46h0A16.134,16.134,0,0,0,671.4,245.486l-.821-4.82H599.061V216.758H482.032V240.6H378.01V212.454H338.249a19.5,19.5,0,1,0-24.506,0H254.48v28.173h-56.41a18.464,18.464,0,0,0-22.52-1.585h0a18.337,18.337,0,0,0-7.207,9.321,18.464,18.464,0,0,0,2.12,23.341L187.3,288.812v11.811c-5.132,16.433-16.076,45.841-39.01,91.683C146.122,394.47,96.276,487.662,178.625,518H681.416S768.1,502.853,705.254,368.493Z" transform="translate(-131.371 -177.781)" fill="url(#linear-gradient-2)"/>
    </g>
    <rect id="Rectangle_92" data-name="Rectangle 92" width="118.564" height="34.324" transform="translate(130.158 125.335)" opacity="0.1"/>
    <rect id="Rectangle_93" data-name="Rectangle 93" width="118.564" height="31.204" transform="translate(130.158 125.335)" fill="#6c63ff"/>
    <circle id="Ellipse_26" data-name="Ellipse 26" cx="18.719" cy="18.719" r="18.719" transform="translate(180.081 92.056)" fill="#6c63ff"/>
    <rect id="Rectangle_94" data-name="Rectangle 94" width="224.648" height="120.646" transform="translate(88.557 187.737)" fill="#6c63ff"/>
    <rect id="Rectangle_95" data-name="Rectangle 95" width="224.648" height="120.646" transform="translate(88.557 187.737)" opacity="0.5"/>
    <path id="Path_215" data-name="Path 215" d="M851.534,423.774C911.853,552.734,828.651,567.3,828.651,567.3H570.729L564.49,332.25l258.966,1.038c2.082,29.122,28.078,90.479,28.078,90.479" transform="translate(-288.728 -148.684)" fill="#6c63ff"/>
    <rect id="Rectangle_96" data-name="Rectangle 96" width="463.851" height="58.244" transform="translate(65.674 152.375)" fill="#6c63ff"/>
    <path id="Path_216" data-name="Path 216" d="M576.361,294.444l-473.211,3.12V239.32H567Z" transform="translate(-37.476 -86.945)" opacity="0.1"/>
    <path id="Path_217" data-name="Path 217" d="M600.143,423.492s-32.07-54.933-40.563-86.322L571.04,569.1S660.444,552.453,600.143,423.492Z" transform="translate(-286.944 -150.471)" opacity="0.1"/>
    <g id="Group_107" data-name="Group 107" transform="translate(72.869 0.009)" opacity="0.5">
      <path id="Path_218" data-name="Path 218" d="M314.34,68.914s34.254-6.851,51.381,0c0,0,10.276-23.978,20.552-23.978s13.7,37.679,13.7,37.679l13.7,54.812s65.088,116.469,0,178.132S245.82,308.709,245.82,264.18s20.552-137.021,20.552-137.021,20.552-75.365,27.378-82.215S314.34,68.914,314.34,68.914Z" transform="translate(-245.82 -43.949)" fill="url(#linear-gradient-3)"/>
    </g>
    <path id="Path_219" data-name="Path 219" d="M317.668,76.958s32.929-6.583,49.394,0c0,0,9.881-23.048,19.737-23.048s13.173,36.221,13.173,36.221l13.173,52.686s62.567,111.961,0,171.269S251.79,307.5,251.79,264.691s19.737-131.724,19.737-131.724,19.737-72.449,26.346-79.032S317.668,76.958,317.668,76.958Z" transform="translate(-175.12 -47.221)" fill="#ffd180"/>
    <path id="Path_220" data-name="Path 220" d="M208.045,342.068s-4.158,29.122-41.6,104.035c-2.082,2.082-49.923,91.524,29.122,120.646H420.214s83.221-14.593,22.876-143.566c0,0-30.16-63.439-32.242-92.561L299.569,433.591Z" transform="translate(-138.213 -148.091)" fill="#6c63ff"/>
    <g id="Group_108" data-name="Group 108" transform="translate(80.477 5.728)" opacity="0.1">
      <path id="Path_221" data-name="Path 221" d="M528.282,255.632A260.462,260.462,0,0,0,505.24,194.09l2.082,8.321a260.349,260.349,0,0,1,20.96,53.221Z" transform="translate(-347.679 -104.216)" fill="#fff"/>
      <path id="Path_222" data-name="Path 222" d="M259.877,255.772c0-42.811,15.917-114.533,15.917-114.533s19.737-72.449,26.346-79.032,19.737,23.054,19.737,23.054,32.929-6.583,49.394,0c0,0,9.881-23.054,19.737-23.054,3.82,0,6.672,5.463,8.716,12.142C397.72,64.582,394.3,53.885,388.9,53.885c-9.881,0-19.737,23.054-19.737,23.054-16.465-6.583-49.394,0-49.394,0S306.6,47.3,300.033,53.885s-26.346,79.032-26.346,79.032S257.77,204.64,257.77,247.451C257.8,251.322,259.877,257,259.877,255.772Z" transform="translate(-257.77 -52.931)" fill="#fff"/>
    </g>
    <path id="Path_223" data-name="Path 223" d="M208.045,342.068s-4.158,29.122-41.6,104.035c-2.082,2.082-49.923,91.524,29.122,120.646H420.214s83.221-14.593,22.876-143.566c0,0-30.16-63.439-32.242-92.561L299.569,433.591Z" transform="translate(-138.213 -148.091)" fill="#fff" opacity="0.2"/>
    <path id="Path_224" data-name="Path 224" d="M388.07,391.721,485.833,289.8H751.159a15.478,15.478,0,0,1,15.478,15.478h0a15.478,15.478,0,0,1-15.7,15.478l-250.53-3.916L388.07,425Z" transform="translate(-224.632 -133.261)" fill="#6c63ff"/>
    <path id="Path_225" data-name="Path 225" d="M235.842,282.7l85.5,104.085v33.28L209.5,306.4a17.732,17.732,0,0,1,2.8-27.193h0A17.732,17.732,0,0,1,235.842,282.7Z" transform="translate(-157.905 -128.33)" fill="#6c63ff"/>
    <path id="Path_226" data-name="Path 226" d="M388.07,398.251,485.833,296.33H751.159a15.478,15.478,0,0,1,15.478,15.478h0a15.478,15.478,0,0,1-15.7,15.51L500.394,323.37,388.07,431.537Z" transform="translate(-224.632 -135.633)" opacity="0.1"/>
    <path id="Path_227" data-name="Path 227" d="M388.07,391.721,485.833,289.8H751.159a15.478,15.478,0,0,1,15.478,15.478h0a15.478,15.478,0,0,1-15.7,15.478l-250.53-3.916L388.07,425Z" transform="translate(-224.632 -133.261)" fill="#6c63ff"/>
    <path id="Path_228" data-name="Path 228" d="M232.579,289.241,318.073,393.32V426.6L206.233,312.932a17.732,17.732,0,0,1,2.8-27.193h0a17.732,17.732,0,0,1,23.545,3.5Z" transform="translate(-156.717 -130.702)" opacity="0.1"/>
    <path id="Path_229" data-name="Path 229" d="M235.842,282.7l85.5,104.085v33.28L209.5,306.4a17.732,17.732,0,0,1,2.8-27.193h0A17.732,17.732,0,0,1,235.842,282.7Z" transform="translate(-157.905 -128.33)" fill="#6c63ff"/>
    <rect id="Rectangle_97" data-name="Rectangle 97" width="116.482" height="20.801" transform="translate(111.433 356.223)" fill="#fff" opacity="0.5"/>
    <rect id="Rectangle_98" data-name="Rectangle 98" width="118.564" height="20.801" transform="translate(392.244 356.223)" fill="#fff" opacity="0.5"/>
    <rect id="Rectangle_99" data-name="Rectangle 99" width="112.324" height="39.519" transform="translate(348.56 129.499)" fill="#6c63ff"/>
    <circle id="Ellipse_27" data-name="Ellipse 27" cx="18.719" cy="18.719" r="18.719" transform="translate(377.683 96.219)" fill="#6c63ff"/>
    <circle id="Ellipse_28" data-name="Ellipse 28" cx="22.883" cy="22.883" r="22.883" transform="translate(136.391 256.378)" opacity="0.1"/>
    <circle id="Ellipse_29" data-name="Ellipse 29" cx="22.883" cy="22.883" r="22.883" transform="translate(136.391 252.22)" fill="#6c63ff"/>
    <circle id="Ellipse_30" data-name="Ellipse 30" cx="22.883" cy="22.883" r="22.883" transform="translate(136.391 252.22)" opacity="0.3"/>
    <circle id="Ellipse_31" data-name="Ellipse 31" cx="6.583" cy="6.583" r="6.583" transform="translate(200.174 80.786)" fill="#58555d"/>
    <circle id="Ellipse_32" data-name="Ellipse 32" cx="6.583" cy="6.583" r="6.583" transform="translate(124.434 80.786)" fill="#58555d"/>
    <ellipse id="Ellipse_33" data-name="Ellipse 33" cx="9.881" cy="6.583" rx="9.881" ry="6.583" transform="translate(160.655 87.37)" fill="#58555d"/>
    <rect id="Rectangle_100" data-name="Rectangle 100" width="30.357" height="3.292" transform="translate(226.163 85.737) rotate(-12.52)" fill="#ffd180"/>
    <rect id="Rectangle_101" data-name="Rectangle 101" width="33.585" height="3.292" transform="translate(226.195 98.891) rotate(-11.27)" fill="#ffd180"/>
    <rect id="Rectangle_102" data-name="Rectangle 102" width="3.292" height="35.47" transform="translate(74.426 72.431) rotate(-68.2)" fill="#ffd180"/>
    <rect id="Rectangle_103" data-name="Rectangle 103" width="3.292" height="43.314" transform="matrix(0.152, -0.988, 0.988, 0.152, 64.916, 89.006)" fill="#ffd180"/>
    <path id="Path_230" data-name="Path 230" d="M358.15,344.622s22.921,49.8-7.163,54.036-16.344-41.7-16.344-41.7-3.005-13.644-10.333-14.415" transform="translate(-201.467 -152.422)" opacity="0.1"/>
    <path id="Path_231" data-name="Path 231" d="M414.4,343.92s-27.225,47.567,2.343,54.462,19.979-40.111,19.979-40.111,4.208-13.326,11.569-13.44" transform="translate(-230.042 -152.923)" opacity="0.1"/>
    <path id="Path_232" data-name="Path 232" d="M353.916,342.442s22.921,49.8-7.163,54.036-16.35-41.7-16.35-41.7S327.4,341.13,320.07,340.36" transform="translate(-199.927 -151.63)" fill="#ffd180"/>
    <path id="Path_233" data-name="Path 233" d="M417.665,340.63s-27.225,47.567,2.343,54.462,19.979-40.111,19.979-40.111,4.208-13.326,11.569-13.44" transform="translate(-231.23 -151.728)" fill="#ffd180"/>
    <rect id="Rectangle_104" data-name="Rectangle 104" width="0.522" height="9.716" transform="translate(137.174 234.54)" fill="#58555d" opacity="0.5"/>
    <rect id="Rectangle_105" data-name="Rectangle 105" width="0.522" height="9.716" transform="translate(145.496 234.54)" fill="#58555d" opacity="0.5"/>
    <rect id="Rectangle_106" data-name="Rectangle 106" width="0.522" height="13.6" transform="translate(140.982 231.439)" fill="#58555d" opacity="0.5"/>
    <rect id="Rectangle_107" data-name="Rectangle 107" width="0.522" height="9.716" transform="translate(191.254 232.458)" fill="#58555d" opacity="0.5"/>
    <rect id="Rectangle_108" data-name="Rectangle 108" width="0.522" height="9.716" transform="translate(199.576 232.458)" fill="#58555d" opacity="0.5"/>
    <rect id="Rectangle_109" data-name="Rectangle 109" width="0.522" height="13.6" transform="translate(195.062 229.357)" fill="#58555d" opacity="0.5"/>
    <g id="Group_109" data-name="Group 109" transform="translate(299.007 397.372)" opacity="0.5">
      <circle id="Ellipse_34" data-name="Ellipse 34" cx="59.849" cy="59.849" r="59.849" fill="url(#linear-gradient-3)"/>
    </g>
    <circle id="Ellipse_35" data-name="Ellipse 35" cx="56.028" cy="56.028" r="56.028" transform="translate(302.827 401.192)" fill="#f55f44"/>
    <g id="Group_110" data-name="Group 110" transform="translate(145.419 253.054)" opacity="0.5">
      <path id="Path_234" data-name="Path 234" d="M407.909,669.336c-8.493,0-17.388-5-18.464-13.517-.637-4.915,1.458-9.487,3.464-13.905,2.2-4.845,4.107-9.028,2.222-12.778a13.655,13.655,0,0,0-4.145-4.329c-2.146-1.611-4.457-3.133-6.711-4.6a78.788,78.788,0,0,1-11.371-8.487c-6.838-6.526-9.862-14.695-8.1-21.851,1.528-6.182,6.189-10.614,10.7-14.892,4.622-4.393,8.99-8.538,9.385-14.052.535-7.5-6.647-13.555-12.982-18.9l-.987-.834c-7.729-6.545-14.758-17.331-9.092-26.193,1.967-3.1,4.953-4.934,7.844-6.711a26.741,26.741,0,0,0,5.348-3.9c5.495-5.73,3.769-15.013,2.776-18.757-.758-2.84-1.827-5.73-2.859-8.474a67.882,67.882,0,0,1-3.82-12.8l-.121-.732c-1.776-10.779-1.738-11.174,2.018-21.011l.471-1.229,4.164,1.585-.471,1.235c-3.4,8.914-3.4,8.914-1.783,18.725l.121.739a62.2,62.2,0,0,0,3.616,11.97c1.07,2.865,2.171,5.832,2.986,8.914,2.547,9.448,1.108,17.827-3.871,23a30.441,30.441,0,0,1-6.22,4.6c-2.547,1.579-5,3.075-6.418,5.3-4.419,6.813,3.062,16,8.188,20.323l.98.828c6.793,5.73,15.28,12.855,14.555,22.621-.516,7.239-5.73,12.186-10.76,16.968-4.228,4.017-8.226,7.812-9.442,12.734-1.624,6.577,2.477,13.37,6.851,17.56a73.663,73.663,0,0,0,10.735,7.984c2.3,1.509,4.686,3.069,6.953,4.769a17.449,17.449,0,0,1,5.45,5.889c2.846,5.654.306,11.231-2.146,16.624-1.834,4.03-3.565,7.838-3.1,11.5.84,6.615,9.092,10.321,15.974,9.512,5.628-.637,10.766-3.273,16.2-6.029,1.757-.891,3.578-1.815,5.4-2.661,9.951-4.6,18.649-5.176,25.155-1.655a32.914,32.914,0,0,1,5.692,4.2,33.242,33.242,0,0,0,4.355,3.349,16.019,16.019,0,0,0,21.081-5.3c.388-.637.745-1.35,1.121-2.095,1.2-2.362,2.547-5.036,5.265-6.545,2.833-1.585,6.119-1.273,8.519-1.031l24.831,2.4-.433,4.457-24.831-2.4c-2.356-.229-4.419-.35-5.915.49s-2.47,2.712-3.476,4.68c-.395.77-.8,1.573-1.273,2.349a20.463,20.463,0,0,1-27.206,6.813,37.064,37.064,0,0,1-4.953-3.782,29.125,29.125,0,0,0-4.909-3.661c-6.6-3.572-15.153-1.006-21.163,1.776-1.751.809-3.534,1.713-5.253,2.591-5.546,2.814-11.276,5.73-17.7,6.482A20.908,20.908,0,0,1,407.909,669.336Z" transform="translate(-359.769 -441.39)" fill="url(#linear-gradient-5)"/>
    </g>
    <path id="Path_235" data-name="Path 235" d="M409.909,666.336c-8.493,0-17.388-5-18.464-13.517-.637-4.915,1.458-9.487,3.464-13.905,2.2-4.845,4.107-9.028,2.222-12.778a13.655,13.655,0,0,0-4.145-4.329c-2.146-1.611-4.457-3.133-6.711-4.6a78.788,78.788,0,0,1-11.371-8.487c-6.838-6.526-9.862-14.695-8.1-21.851,1.528-6.182,6.189-10.614,10.7-14.892,4.622-4.393,8.99-8.538,9.385-14.052.535-7.5-6.647-13.555-12.982-18.9l-.987-.834c-7.729-6.545-14.758-17.331-9.092-26.193,1.967-3.1,4.953-4.934,7.844-6.711a26.743,26.743,0,0,0,5.348-3.9c5.495-5.73,3.769-15.013,2.776-18.757-.758-2.84-1.827-5.73-2.859-8.474a67.882,67.882,0,0,1-3.82-12.8l-.121-.732c-1.776-10.779-1.738-11.174,2.018-21.011l.471-1.229,4.164,1.585-.471,1.235c-3.4,8.914-3.4,8.914-1.783,18.725l.121.739a62.2,62.2,0,0,0,3.616,11.97c1.07,2.865,2.171,5.832,2.986,8.914,2.547,9.448,1.108,17.827-3.871,23a30.442,30.442,0,0,1-6.22,4.6c-2.547,1.579-5,3.075-6.418,5.3-4.419,6.813,3.062,16,8.188,20.323l.98.828c6.793,5.73,15.28,12.855,14.555,22.621-.516,7.239-5.73,12.186-10.76,16.968-4.228,4.017-8.226,7.812-9.442,12.734-1.624,6.577,2.477,13.37,6.851,17.56a73.67,73.67,0,0,0,10.734,7.984c2.3,1.509,4.686,3.069,6.953,4.769a17.45,17.45,0,0,1,5.45,5.889c2.846,5.654.306,11.231-2.146,16.624-1.834,4.03-3.565,7.838-3.1,11.5.84,6.615,9.092,10.321,15.974,9.512,5.628-.637,10.766-3.273,16.2-6.029,1.757-.891,3.578-1.815,5.4-2.661,9.951-4.6,18.648-5.176,25.155-1.655a32.916,32.916,0,0,1,5.692,4.2,33.235,33.235,0,0,0,4.355,3.349,16.019,16.019,0,0,0,21.081-5.3c.388-.637.745-1.35,1.121-2.095,1.2-2.362,2.547-5.036,5.265-6.545,2.833-1.585,6.119-1.273,8.519-1.031l24.831,2.4-.433,4.457-24.831-2.4c-2.356-.229-4.419-.35-5.915.49s-2.47,2.712-3.476,4.68c-.395.77-.8,1.573-1.273,2.349a20.463,20.463,0,0,1-27.206,6.813,37.073,37.073,0,0,1-4.953-3.782,29.124,29.124,0,0,0-4.909-3.661c-6.6-3.572-15.153-1.006-21.163,1.776-1.751.809-3.534,1.713-5.253,2.591-5.546,2.814-11.276,5.73-17.7,6.482a20.91,20.91,0,0,1-2.445.134Z" transform="translate(-215.077 -187.246)" fill="#f55f44"/>
    <path id="Path_236" data-name="Path 236" d="M710,701.06s30.879,5.412,31.516,51.253" transform="translate(-341.594 -282.677)" fill="none" stroke="#000" stroke-miterlimit="10" stroke-width="1" opacity="0.2"/>
    <path id="Path_237" data-name="Path 237" d="M623.859,752.772s-11.46-38.2,38.838-59.212" transform="translate(-309.89 -279.952)" fill="none" stroke="#000" stroke-miterlimit="10" stroke-width="1" opacity="0.2"/>
    <path id="Path_238" data-name="Path 238" d="M644.057,756.121s-5.094-19.737,10.824-30.561" transform="translate(-317.354 -291.578)" fill="none" stroke="#000" stroke-miterlimit="10" stroke-width="1" opacity="0.2"/>
    <path id="Path_239" data-name="Path 239" d="M693.5,725.56s12.1,10.187,5.73,35.654" transform="translate(-335.599 -291.578)" fill="none" stroke="#000" stroke-miterlimit="10" stroke-width="1" opacity="0.2"/>
    <path id="Path_240" data-name="Path 240" d="M734.5,688.56s20.374,11.46,25.467,46.478" transform="translate(-350.495 -278.136)" fill="none" stroke="#000" stroke-miterlimit="10" stroke-width="1" opacity="0.2"/>
    <path id="Path_241" data-name="Path 241" d="M685.5,687.967s12.734-3.82,21.011,3.183" transform="translate(-332.693 -277.542)" fill="none" stroke="#000" stroke-miterlimit="10" stroke-width="1" opacity="0.2"/>
    <path id="Path_242" data-name="Path 242" d="M661.5,800.56s10.824,13.37,54.755,0" transform="translate(-323.973 -318.827)" fill="none" stroke="#000" stroke-miterlimit="10" stroke-width="1" opacity="0.2"/>
    <path id="Path_243" data-name="Path 243" d="M648.5,826.56s5.73,11.46,26.1,10.187" transform="translate(-319.25 -328.273)" fill="none" stroke="#000" stroke-miterlimit="10" stroke-width="1" opacity="0.2"/>
    <path id="Path_244" data-name="Path 244" d="M637.6,693.56s-17.191,11.46-19.1,35.654" transform="translate(-308.351 -279.952)" fill="none" stroke="#000" stroke-miterlimit="10" stroke-width="1" opacity="0.2"/>
    <path id="Path_245" data-name="Path 245" d="M636.955,786.56s-3.82,7.64,3.82,14.644" transform="translate(-314.709 -313.741)" fill="none" stroke="#000" stroke-miterlimit="10" stroke-width="1" opacity="0.2"/>
    <path id="Path_246" data-name="Path 246" d="M746.144,809.56s-5.73,15.281-14.644,13.37" transform="translate(-349.405 -322.097)" fill="none" stroke="#000" stroke-miterlimit="10" stroke-width="1" opacity="0.2"/>
    <path id="Path_247" data-name="Path 247" d="M668.5,820.56a36.246,36.246,0,0,0,31.834,0" transform="translate(-326.516 -326.093)" fill="none" stroke="#000" stroke-miterlimit="10" stroke-width="1" opacity="0.2"/>
    <path id="Path_248" data-name="Path 248" d="M718.5,740.56s5.73,7.64,1.91,16.554" transform="translate(-344.682 -297.028)" fill="none" stroke="#000" stroke-miterlimit="10" stroke-width="1" opacity="0.2"/>
    <path id="Path_249" data-name="Path 249" d="M666.5,741.56s-5.73,10.187-2.547,18.464" transform="translate(-324.514 -297.392)" fill="none" stroke="#000" stroke-miterlimit="10" stroke-width="1" opacity="0.2"/>
    <path id="Path_250" data-name="Path 250" d="M679.5,741.56s4.457,12.1,0,18.464" transform="translate(-330.513 -297.392)" fill="none" stroke="#000" stroke-miterlimit="10" stroke-width="1" opacity="0.2"/>
    <path id="Path_251" data-name="Path 251" d="M345.152,241.8a150.645,150.645,0,0,1-25.728-2.2A142.1,142.1,0,0,1,272.99,222.91l1.146-5.316a156.143,156.143,0,0,0,46.523,16.414c23.7,4.068,64.477,2.846,105.925-20.017l2.77,5.017C399.277,235.6,367.614,241.8,345.152,241.8Z" transform="translate(-182.822 -105.718)" opacity="0.1"/>
    <path id="Path_252" data-name="Path 252" d="M388.053,259.776l-.223-.223a3.451,3.451,0,0,0,0-5.495l.2-.248a3.763,3.763,0,0,1,0,5.966Z" transform="translate(-224.545 -120.185)" fill="#4d8af0"/>
    <path id="Path_253" data-name="Path 253" d="M388.053,259.776l-.223-.223a3.451,3.451,0,0,0,0-5.495l.2-.248a3.763,3.763,0,0,1,0,5.966Z" transform="translate(-224.545 -120.185)" opacity="0.1"/>
    <path id="Path_254" data-name="Path 254" d="M425.511,212c-41.448,22.863-82.228,24.086-105.925,20.017A156.142,156.142,0,0,1,273.062,215.6L270,220.449a159.316,159.316,0,0,0,48.331,17.191,150.647,150.647,0,0,0,25.729,2.2c22.456,0,54.118-6.2,84.208-22.8Zm-80.382,27.378a.637.637,0,1,1,.637-.637A.637.637,0,0,1,345.129,239.378Z" transform="translate(-181.736 -104.995)" fill="#f55f44"/>
    <path id="Path_255" data-name="Path 255" d="M378,265.367h0a6.367,6.367,0,0,0,6.367,6.367h0a6.367,6.367,0,0,0,6.367-6.367h0A6.367,6.367,0,0,0,384.367,259h0A6.367,6.367,0,0,0,378,265.367Zm6.367-3.183a1.063,1.063,0,1,1,1.063-1.063,1.063,1.063,0,0,1-1.063,1.063Z" transform="translate(-220.974 -122.071)" opacity="0.1" fill="url(#linear-gradient-6)"/>
    <path id="Path_256" data-name="Path 256" d="M379,265.73h0a5.73,5.73,0,0,0,5.73,5.73h0a5.73,5.73,0,0,0,5.73-5.73h0a5.73,5.73,0,0,0-5.73-5.73h0A5.73,5.73,0,0,0,379,265.73Zm5.73-2.865a.955.955,0,1,1,.955-.955.955.955,0,0,1-.955.955Z" transform="translate(-221.337 -122.434)" fill="#4d8af0"/>
    <path id="Path_257" data-name="Path 257" d="M386.982,259.776a3.763,3.763,0,0,1,0-5.966l.2.248a3.451,3.451,0,0,0,0,5.495Z" transform="translate(-223.703 -120.185)" fill="#4d8af0"/>
    <path id="Path_258" data-name="Path 258" d="M256.63,210.06h0" transform="translate(-93.237 -76.314)" fill="#4d8af0"/>
    <path id="Path_259" data-name="Path 259" d="M422.161,215C334.508,266.572,284,218.82,284,218.82Z" transform="translate(-186.822 -106.085)" fill="#ffd180"/>
  </g>
</svg>
